<svg xmlns="http://www.w3.org/2000/svg" width="1024" height="1024" viewBox="0 0 1024 1024"><g id="heads 2"><path id="51" d="M 275.484,461.950 C 265.370,455.067 262,452.196 262,450.463 C 262,448.958 270.382,441.117 275,438.303 C 279.811,435.371 290.794,431.800 292.922,432.475 C 295.920,433.426 309.636,447.049 308.203,447.652 C 304.888,449.046 291.083,460.100 287.959,463.861 C 287.959,463.861 284.468,468.063 284.468,468.063 C 284.468,468.063 275.484,461.950 275.484,461.950" stroke="#60BF62" fill="#60BF62" stroke-width="1" />
  <path id="51" d="M 394.500,603.881 C 380.173,598.982 363.271,588.974 357.995,582.267 C 353.755,576.877 356.046,558.358 363.027,541.589 C 363.027,541.589 366.175,534.028 366.175,534.028 C 366.175,534.028 370.837,537.912 370.837,537.912 C 381.587,546.867 395.219,554.294 409.500,558.976 C 413.350,560.238 416.635,561.383 416.801,561.520 C 416.967,561.657 415.317,565.759 413.135,570.635 C 408.110,581.863 405.242,590.677 403.824,599.250 C 403.210,602.963 402.210,605.984 401.603,605.966 C 400.996,605.948 397.800,605.009 394.500,603.881" stroke="#60BF62" fill="#60BF62" stroke-width="1" />
  <path id="51" d="M 160.095,591.128 C 154.486,585.351 152.608,582.709 152.352,580.239 C 152.166,578.446 150.431,573.833 148.495,569.989 C 146.559,566.145 145.276,563 145.643,563 C 146.011,563 147.704,564.058 149.406,565.352 C 153.956,568.810 158.997,571.215 160.491,570.642 C 161.212,570.366 162.103,568.349 162.473,566.160 C 163.017,562.937 163.653,562.053 165.817,561.510 C 169.519,560.581 171,559.144 171,556.481 C 171,553.939 164.910,548 162.303,548 C 156.176,548 135.803,530.555 137.923,527.124 C 139.006,525.372 149.718,527.327 156.925,530.592 C 160.188,532.070 162.713,532.687 163.261,532.139 C 163.809,531.591 162.990,528.493 161.205,524.364 C 155.357,510.835 154.813,502.386 159.194,493.175 C 162.369,486.500 160.706,486.198 149.750,491.457 C 136.807,497.669 136.739,497.777 140.381,506.192 C 140.381,506.192 141.979,509.885 141.979,509.885 C 141.979,509.885 136.239,507.830 136.239,507.830 C 133.082,506.700 129.825,505.674 129,505.551 C 128.175,505.428 125.713,504.562 123.530,503.624 C 121.347,502.686 118.647,502.050 117.530,502.210 C 112.964,502.865 117.576,514.413 124.920,520.714 C 127.046,522.538 127.189,522.934 125.732,522.964 C 122.757,523.024 109.027,519.054 104.861,516.929 C 100.298,514.601 99,515.040 99,518.909 C 99,524.016 107.190,533.061 118.393,540.327 C 124.405,544.226 122.610,544.878 112.381,542.513 C 104.128,540.605 99.105,537.573 92.748,530.665 C 88.236,525.761 87.922,525.595 86.539,527.385 C 83.816,530.908 83.401,538.707 85.549,546 C 86.280,548.483 86.263,548.480 83.049,545.500 C 75.306,538.322 72.434,524.721 77.058,517.137 C 78.186,515.288 78.910,513.577 78.668,513.335 C 78.029,512.696 74,518.041 74,519.528 C 73,520.432 69.750,525.316 69.856,525 C 68.028,525 69.722,511.204 72.172,506.144 C 73.334,503.744 75.853,499.725 77.770,497.214 C 83.127,490.196 84.951,485.346 84.995,478 C 85.072,465.323 87.665,457.052 100.351,429.016 C 100.351,429.016 106.905,414.532 106.905,414.532 C 106.905,414.532 109.009,419.516 109.009,419.516 C 110.166,422.257 111.527,425.513 112.034,426.750 C 113.371,430.011 114.687,429.535 117.032,424.938 C 118.645,421.776 119.425,417.065 120.550,403.688 C 122.242,383.563 123.725,370.283 124.980,364 C 125.475,361.525 126.162,357.754 126.509,355.620 C 126.879,353.339 127.508,352.108 128.034,352.634 C 129.418,354.018 131.718,366.305 132.970,379 C 134.517,394.695 135.722,395.640 139.983,384.500 C 141.245,381.200 143.091,376.700 144.086,374.500 C 145.081,372.300 147.556,366.225 149.587,361 C 153.774,350.226 161.935,333.305 165.061,328.915 C 168.393,324.235 169.240,326.175 168.530,336.862 C 167.469,352.845 165.108,365.751 160.857,378.819 C 158.246,386.846 157.165,391.565 157.794,392.194 C 158.423,392.823 160.483,391.956 163.633,389.738 C 170.704,384.759 180.019,379.685 180.749,380.415 C 182.444,382.110 175.310,399.448 165.077,418.500 C 161.412,425.325 161.031,426.550 162.492,426.843 C 163.523,427.050 166.204,425.145 169.230,422.054 C 171.994,419.231 174.520,417.187 174.844,417.511 C 175.772,418.439 172.303,437.116 169.929,443.976 C 168.260,448.798 168.050,450.440 168.985,451.341 C 169.909,452.231 171.793,450.773 177.094,445.069 C 183.160,438.542 184,437.169 184,433.777 C 184,422.023 190.563,403.812 197.614,396.002 C 201.585,391.603 211.206,384 212.800,384 C 213.287,384 214.093,387.004 214.592,390.675 C 215.101,394.416 216.049,397.530 216.749,397.758 C 217.488,397.999 219.361,395.375 221.335,391.333 C 228.544,376.570 233.941,369.370 240.343,365.974 C 244.527,363.755 244.914,363.714 247.265,365.254 C 252.242,368.515 251.476,384.993 245.909,394.429 C 244.368,397.041 244.039,398.439 244.790,399.190 C 246.636,401.036 250.389,399.244 256.770,393.470 C 268.362,382.980 273.008,368.723 271.011,349.769 C 269.700,337.320 269.755,328.549 271.176,323.807 C 272.357,319.866 276.967,315 279.521,315 C 282.628,315 285.961,319.521 287.261,325.500 C 288.759,332.391 287.456,332.004 304.500,330.615 C 304.500,330.615 313.500,329.882 313.500,329.882 C 313.500,329.882 306.671,336.409 306.671,336.409 C 300.053,342.734 298.772,345.888 303.363,344.552 C 311.830,342.089 337.382,341.979 346.743,344.366 C 354.421,346.323 355.165,347.371 349.612,348.413 C 346.177,349.057 343.218,351.404 344.701,352.309 C 345.140,352.577 348.650,353.096 352.500,353.462 C 361.422,354.311 371.537,357.247 380.750,361.664 C 388.122,365.198 389.231,366.314 386.437,367.386 C 384.962,369.798 385.756,369.798 383.310,370.548 C 382.511,371.347 380.675,372 379.229,372 C 375.540,372 377.587,373.378 383.478,374.861 C 389.191,376.299 396.763,380.471 402.375,385.272 C 402.375,385.272 406.249,388.586 406.249,388.586 C 406.249,388.586 402.538,402.986 402.538,402.986 C 397.916,420.923 389.896,444.047 386.537,449.123 C 385.141,451.232 383.999,453.530 383.997,454.229 C 383.995,454.928 382.004,451.450 379.573,446.500 C 370.559,428.145 352.241,411.114 333.279,403.458 C 330.101,402.175 323.506,400.340 318.624,399.381 C 310.719,397.829 308.478,397.778 298.127,398.913 C 291.735,399.614 286.054,400.471 281.271,402.695 C 280.813,404.059 288.329,407.992 291.438,408.015 C 299.440,407.428 290.941,412.944 289.949,412 C 289.442,412 282.678,414.716 274.918,418.035 C 254.181,426.905 244.028,432.702 227,445.393 C 214.961,454.366 201.425,467.260 202.396,468.831 C 202.793,469.474 204.779,470.008 206.809,470.019 C 208.839,470.030 212.750,470.626 215.500,471.345 C 215.500,471.345 220.500,472.651 220.500,472.651 C 220.500,472.651 215.500,474.331 215.500,474.331 C 205.159,477.805 192.017,490.560 187.171,501.825 C 183.970,509.266 182,517.723 182,524.028 C 182,530.854 184.954,542.573 187.861,547.276 C 189.037,549.179 190,551.309 190,552.010 C 190,552.711 188.251,556.054 186.113,559.439 C 182.554,565.074 182.217,566.216 182.114,572.967 C 181.988,581.272 180.476,584 176,584 C 172.318,584 170.273,586.598 168.771,593.183 C 168.771,593.183 167.500,598.755 167.500,598.755 C 167.500,598.755 160.095,591.128 160.095,591.128M 118.500,477 C 118.840,476.450 120.117,476 121.337,476 C 122.557,476 124.442,475.389 125.527,474.642 C 126.612,473.895 129.075,472.985 131,472.619 C 132.925,472.253 136.750,470.721 139.500,469.213 C 144.265,466.601 144.494,466.284 144.361,462.486 C 144.062,453.916 142.660,445.963 141.241,444.785 C 139.540,443.374 138.488,444.484 132.034,454.500 C 129.908,457.800 125.184,463.997 121.537,468.270 C 117.890,472.544 115.179,476.481 115.512,477.020 C 116.293,478.283 117.713,478.274 118.500,477" stroke="#60BF62" fill="#60BF62" stroke-width="1" />
  <path id="51" d="M 627.082,349 C 627.103,344.875 627.561,339.250 628.102,336.500 C 628.642,333.750 629.526,328.575 630.065,325 C 630.604,321.425 631.768,316.836 632.651,314.803 C 635.409,308.450 643.578,306.247 651.953,309.598 C 655.259,310.921 656.058,311.792 656.597,314.664 C 657.309,318.459 657.761,317.798 645.423,330.998 C 642.080,334.574 637.480,340.650 635.201,344.500 C 632.922,348.350 630.155,352.625 629.051,354 C 629.051,354 627.044,356.500 627.044,356.500 C 627.044,356.500 627.082,349 627.082,349" stroke="#60BF62" fill="#60BF62" stroke-width="1" />
  <path id="51" d="M 216.088,350.731 C 215.301,348.660 211.144,344.629 202.952,337.994 C 200.995,336.409 199.177,333.474 198.002,330.005 C 196.242,324.806 196.186,322.065 197.897,324.834 C 199.086,326.757 210.144,331.992 213.027,331.996 C 215.944,332 220,329.466 220,327.639 C 220,326.953 218.387,324.841 216.415,322.946 C 214.443,321.051 212.193,318.285 211.415,316.800 C 209.723,313.571 209.581,305.046 211.126,299.500 C 211.126,299.500 212.240,295.500 212.240,295.500 C 212.240,295.500 214.448,302 214.448,302 C 217.205,310.116 219.198,313.965 221.921,316.429 C 225.128,319.331 226.044,317.530 227.553,305.345 C 229.847,286.824 232.475,277.906 240.081,262.839 C 241.771,259.492 242.782,256.406 242.327,255.982 C 241.872,255.558 237.450,256.264 232.500,257.553 C 217.582,261.437 205.140,260.469 193.704,254.536 C 191.013,253.140 188.357,252.279 187.801,252.623 C 187.176,253.009 186.981,256.828 187.293,262.624 C 187.593,268.211 187.415,272 186.851,272 C 185.264,272 180.989,266.750 178.863,262.191 C 173.673,251.061 169.364,265.142 172.648,282.500 C 172.648,282.500 173.216,285.500 173.216,285.500 C 173.216,285.500 169.674,282.118 169.674,282.118 C 164.545,277.220 161.621,269.851 162.353,263.670 C 162.674,260.962 163.667,257.631 164.561,256.267 C 165.747,254.457 165.888,253.488 165.082,252.682 C 163.703,251.303 161.046,253.864 158.169,259.345 C 158.169,259.345 156.150,263.191 156.150,263.191 C 156.150,263.191 154.714,260.345 154.714,260.345 C 150.955,252.896 152.579,242.228 158.709,234.095 C 164.312,226.662 166.684,225.600 171.907,228.184 C 177.045,230.726 179.207,229.893 184.614,223.295 C 189.675,217.119 197.320,212.271 216.602,203.010 C 225.896,198.546 234.786,193.681 236.357,192.197 C 238.882,189.813 246.131,179.580 247.402,176.605 C 247.937,175.353 249.557,177.149 252.203,181.925 C 253.140,183.616 254.265,184.999 254.703,184.999 C 255.141,184.999 258.015,183.025 261.088,180.612 C 266.303,176.518 277.438,164.469 298.158,140.500 C 309.495,127.386 311.576,125.452 312.305,127.352 C 313.126,129.492 308.220,148.533 305.053,155.500 C 302.640,160.809 298.446,167.724 293.349,174.797 C 292.165,176.441 292.001,177.401 292.773,178.173 C 293.807,179.207 297.795,178.015 308.750,173.401 C 315.057,170.745 312.862,174.910 300.004,190 C 290.796,200.807 288.693,203.945 290.259,204.546 C 292.125,205.262 312.051,195.855 318.387,191.266 C 321.199,189.229 327.775,183.927 333,179.482 C 338.225,175.037 344.300,170.031 346.500,168.358 C 351.801,164.326 362.977,157.873 363.086,158.781 C 363.133,159.176 363.246,161.035 363.336,162.912 C 363.426,164.789 364.082,166.520 364.794,166.760 C 365.506,167 369.386,163.844 373.416,159.748 C 378.797,154.279 381.276,150.865 382.744,146.900 C 385.337,139.899 386.237,131.825 385.159,125.250 C 384.686,122.363 384.622,120 385.016,120 C 385.410,120 387.375,122.108 389.382,124.685 C 400.304,138.703 397.092,158.294 381.367,173.577 C 376.245,178.555 375.972,181.485 380.728,180.439 C 386.291,179.215 391.252,176.876 396.319,173.086 C 411.840,161.477 418.982,147.942 417.571,132.810 C 417.571,132.810 417.076,127.500 417.076,127.500 C 417.076,127.500 421.090,132 421.090,132 C 427.008,138.635 429.271,144.234 429.178,152 C 429.135,155.575 428.406,160.461 427.557,162.857 C 425.670,168.182 419.886,176.233 415.915,179.061 C 414.299,180.212 413.236,181.573 413.553,182.086 C 413.870,182.599 417.887,182.903 422.480,182.760 C 431.836,182.469 434.795,183.797 438.365,189.894 C 442.189,196.424 439.244,212.191 433.708,214.822 C 430.822,216.194 419.215,219.161 401,223.182 C 388.663,225.906 386.479,227.459 387.385,232.863 C 387.720,234.864 388.270,239.425 388.608,243 C 388.608,243 389.223,249.500 389.223,249.500 C 389.223,249.500 380.361,259.507 380.361,259.507 C 375.487,265.011 369.274,272.436 366.553,276.007 C 360.711,283.675 352,300.287 352,303.760 C 352,307.601 346.360,312.482 340.223,313.950 C 331.235,316.101 328.166,314.741 315.178,302.852 C 313.351,301.179 312.001,299.668 312.178,299.494 C 312.355,299.320 314.975,299.630 318,300.183 C 332.408,302.818 339.942,296.110 335.185,284.881 C 332.416,278.344 330.164,268.292 329.893,261.257 C 329.761,257.823 329.869,254.798 330.134,254.533 C 331.297,253.370 340.927,264.152 343.408,269.396 C 347.644,278.351 350.957,274.901 350.991,261.500 C 351.012,253.058 350.994,253.104 357.813,243.583 C 360.154,240.314 361.181,237.717 361.313,234.729 C 361.489,230.746 361.355,230.522 359,230.875 C 357.625,231.081 350.200,231.306 342.500,231.375 C 328.853,231.497 328.370,231.428 323.336,228.638 C 320.496,227.064 317.683,226.078 317.086,226.447 C 315.676,227.318 315.694,231.558 317.118,234.220 C 318.198,236.238 318.104,236.229 314.368,233.963 C 312.241,232.673 309.112,230.582 307.416,229.317 C 303.262,226.218 298.765,225.374 297.099,227.381 C 294.792,230.161 295.373,239.817 298.386,248.757 C 299.917,253.298 301.592,256.753 302.109,256.433 C 302.626,256.113 302.967,256.223 302.866,256.676 C 302.598,257.880 304.086,261.245 305.738,263.174 C 306.877,264.504 306.897,264.801 305.836,264.616 C 303.209,264.158 292.027,251.754 289.398,246.381 C 287.464,242.429 286.551,238.650 286.110,232.784 C 285.724,227.640 285.042,224.509 284.251,224.247 C 283.564,224.020 282.735,224.659 282.410,225.667 C 281.669,227.965 280.616,230.652 278.950,234.500 C 278.236,236.150 277.730,237.837 277.826,238.250 C 278.285,240.222 276.845,238.615 275.139,235.250 C 271.939,228.940 271.598,222.467 274.045,214.500 C 275.228,210.650 277.095,206.026 278.195,204.225 C 280.060,201.170 280.095,198 278.264,198 C 276.199,198 267.480,207.895 265.247,212.772 C 263.062,217.545 262.832,219.059 263.422,224.817 C 264.148,231.907 266.945,238.433 272.500,246 C 278.190,253.751 291.991,266.241 302.585,273.226 C 308.110,276.869 313.215,280.554 313.929,281.414 C 316.654,281.105 319.368,286.746 317.989,286.344 C 316.415,285.559 310.712,283.742 305.314,282.305 C 292.232,278.823 279.051,278.596 270.725,281.708 C 263.517,284.402 255.895,289.923 252.836,294.666 C 247.213,303.384 244.920,307.934 242.907,314.371 C 241.725,318.150 239.913,322.087 238.879,323.121 C 237.845,324.155 237,325.590 237,326.312 C 237,329.321 232.521,336.523 227.568,341.476 C 224.652,344.392 221.646,348.178 220.889,349.889 C 219.265,353.557 217.294,353.903 216.088,350.731M 227.500,236.136 C 229.150,235.198 231.622,232.321 232.993,229.744 C 235.317,225.376 235.374,224.946 233.825,223.397 C 232.276,221.848 231.598,221.848 223.832,223.403 C 214.167,225.338 203,230.172 203,232.422 C 203,234.072 207.676,236.868 212.500,238.102 C 216.600,239.151 223.872,238.198 227.500,236.136M 353.723,203.490 C 357.919,202.244 359.147,201.326 360.744,198.240 C 362.849,194.172 363.533,187.447 361.942,186.464 C 360.847,185.787 343.411,194.756 338.250,198.650 C 336.462,199.999 335,201.543 335,202.083 C 335,205.018 345.836,205.832 353.723,203.490" stroke="#60BF62" fill="#60BF62" stroke-width="1" />
  <path id="57" d="M 435.412,522.250 C 435.735,521.013 436.265,519.148 436.589,518.107 C 437.060,516.592 436.412,515.963 433.339,514.957 C 421.481,511.074 399.164,498.127 393.076,491.599 C 390.095,488.403 387.232,488.261 386.031,491.250 C 385.476,492.631 385.102,492.901 385.063,491.949 C 385.028,491.096 385.550,489.234 386.221,487.812 C 386.221,487.812 387.441,485.226 387.441,485.226 C 387.441,485.226 394.471,491.003 394.471,491.003 C 407.504,501.714 420.687,509.217 434,513.500 C 437.025,514.473 439.623,515.370 439.773,515.492 C 439.923,515.614 438.871,517.691 437.435,520.107 C 435.999,522.523 435.088,523.487 435.412,522.250" stroke="#75D975" fill="#75D975" stroke-width="1" />
  <path id="51" d="M 311.500,534.134 C 290.272,525.159 279.216,518.704 275.909,513.353 C 274.087,510.405 273.830,508.902 274.329,504.124 C 275.152,496.248 278.217,486.888 282.038,480.584 C 282.038,480.584 285.250,475.284 285.250,475.284 C 285.250,475.284 309.875,487.797 309.875,487.797 C 323.419,494.679 334.639,500.416 334.808,500.546 C 334.977,500.676 333.773,502.969 332.131,505.641 C 327.922,512.492 323.792,525.421 323.633,532.242 C 323.531,536.631 323.147,537.978 322,537.961 C 321.175,537.949 316.450,536.227 311.500,534.134" stroke="#60BF62" fill="#60BF62" stroke-width="1" />
  <path id="51" d="M 592.239,537.494 C 586.608,526.215 582,516.765 582,516.494 C 582,516.222 582.668,516 583.484,516 C 586.083,516 602.993,508.278 611.287,503.303 C 615.691,500.662 622.764,495.252 627.004,491.281 C 627.004,491.281 634.714,484.062 634.714,484.062 C 634.714,484.062 638.544,492.281 638.544,492.281 C 640.651,496.802 644.990,506.052 648.187,512.838 C 651.384,519.624 654,525.493 654,525.880 C 654,526.894 646.383,534.040 640.174,538.851 C 633.296,544.181 620.616,551.059 610.523,554.936 C 606.136,556.621 602.530,558 602.511,558 C 602.492,558 597.870,548.772 592.239,537.494" stroke="#60BF62" fill="#60BF62" stroke-width="1" />
  <path id="51" d="M 618.487,603.670 C 617.054,594.635 613.729,583.410 609.896,574.668 C 607.685,569.625 605.632,564.941 605.334,564.258 C 605.036,563.575 605.626,562.747 606.646,562.418 C 622.114,557.420 639.995,546.881 651.227,536.141 C 653.827,533.655 656.163,531.830 656.419,532.086 C 657.888,533.555 663.239,550.456 664.972,559.101 C 667.981,574.111 667.819,575.598 662.510,581.667 C 656.405,588.646 643.770,596.987 630.324,602.914 C 630.324,602.914 619.149,607.841 619.149,607.841 C 619.149,607.841 618.487,603.670 618.487,603.670" stroke="#60BF62" fill="#60BF62" stroke-width="1" />
  <path id="51" d="M 351.750,503.837 C 346.388,501.071 342,498.462 342,498.039 C 342,496.518 352.631,486.242 356.029,484.478 C 357.938,483.487 361.525,482.147 364,481.499 C 366.906,480.739 368.461,479.793 368.389,478.830 C 368.311,477.778 369.166,477.391 371.292,477.517 C 374.571,477.712 377.485,480.666 376.127,482.418 C 375.666,483.013 372.463,488.900 369.009,495.500 C 365.555,502.100 362.453,507.808 362.115,508.183 C 361.777,508.558 357.112,506.603 351.750,503.837" stroke="#60BF62" fill="#60BF62" stroke-width="1" />
  <path id="57" d="M 434,508.064 C 421.474,503.483 405.974,493.931 394.565,483.762 C 394.565,483.762 389.631,479.364 389.631,479.364 C 389.631,479.364 394.746,466.432 394.746,466.432 C 397.559,459.319 401.039,449.900 402.480,445.500 C 403.921,441.100 405.297,436.913 405.539,436.196 C 405.818,435.367 409.488,437.843 415.614,442.993 C 427.380,452.886 433.405,457.022 447,464.539 C 452.775,467.732 457.614,470.419 457.753,470.509 C 458.367,470.906 442.949,509.349 441.653,510.654 C 441.569,510.739 438.125,509.573 434,508.064M 447.839,493.025 C 451.326,484.808 454.396,476.379 454.662,474.293 C 454.662,474.293 455.145,470.500 455.145,470.500 C 455.145,470.500 447.823,466.594 447.823,466.594 C 436.539,460.575 427.755,454.682 417.859,446.491 C 412.881,442.371 408.235,439 407.534,439 C 406.833,439 405.054,442.487 403.581,446.750 C 402.108,451.013 398.838,459.753 396.315,466.173 C 393.792,472.593 391.987,478.524 392.305,479.353 C 394.075,483.965 419.179,500.774 431.294,505.460 C 441.402,509.369 440.670,509.920 447.839,493.025" stroke="#75D975" fill="#75D975" stroke-width="1" />
  <path id="51" d="M 703.507,537.245 C 702.209,528.889 698.613,517.047 695.058,509.423 C 695.058,509.423 691.292,501.345 691.292,501.345 C 691.292,501.345 710.396,491.180 710.396,491.180 C 720.903,485.589 731.336,479.907 733.581,478.552 C 733.581,478.552 737.662,476.088 737.662,476.088 C 737.662,476.088 741.741,483.794 741.741,483.794 C 752.158,503.473 751.415,514.568 739.124,522.915 C 730.307,528.903 723.527,532.751 716.671,535.657 C 713.277,537.096 709.057,538.885 707.294,539.632 C 707.294,539.632 704.089,540.990 704.089,540.990 C 704.089,540.990 703.507,537.245 703.507,537.245" stroke="#60BF62" fill="#60BF62" stroke-width="1" />
  <path id="51" d="M 334.302,544.634 C 328.275,541.586 328.102,541.389 328.069,537.500 C 328.009,530.558 330.803,520.053 335.033,511.315 C 337.280,506.672 339.429,503.018 339.809,503.196 C 348.561,507.291 358.994,513.314 358.976,514.260 C 358.963,514.942 356.321,520.450 353.103,526.500 C 343.825,543.946 341.534,547.991 341,547.876 C 340.725,547.817 337.711,546.358 334.302,544.634" stroke="#60BF62" fill="#60BF62" stroke-width="1" />
  <path id="51" d="M 683.500,490.278 C 677.718,482.626 670.494,477.263 664.728,476.341 C 660.970,475.740 660.825,475.599 662.598,474.269 C 663.644,473.484 672.825,468.655 683,463.537 C 693.175,458.419 702.850,453.449 704.500,452.492 C 707.393,450.814 707.664,450.830 712.108,452.920 C 721.084,457.141 735.597,470.845 733.373,473 C 732.374,473.968 692.059,495.690 689.912,496.417 C 689.036,496.714 686.602,494.383 683.500,490.278" stroke="#60BF62" fill="#60BF62" stroke-width="1" />
  <path id="51" d="M 753,503.023 C 753,497.527 749.613,487.530 744.952,479.265 C 743.328,476.386 742,473.875 742,473.685 C 742,473.495 744.138,471.805 746.750,469.930 C 749.362,468.055 754.612,463.844 758.415,460.572 C 758.415,460.572 765.330,454.623 765.330,454.623 C 765.330,454.623 769.915,459.646 769.915,459.646 C 772.437,462.409 776.463,468.488 778.862,473.155 C 778.862,473.155 783.224,481.640 783.224,481.640 C 783.224,481.640 781.146,485.714 781.146,485.714 C 780.003,487.954 776.690,491.806 773.784,494.274 C 768.799,498.507 754.823,508 753.575,508 C 753.259,508 753,505.760 753,503.023" stroke="#60BF62" fill="#60BF62" stroke-width="1" />
  <path id="51" d="M 655.138,494.951 C 650.662,486.756 647,479.590 647,479.026 C 647,476.493 660.065,479.030 668.820,483.263 C 673.167,485.365 680.064,492.307 682.527,497.059 C 683.851,499.613 683.836,499.626 673.565,504.734 C 673.565,504.734 663.276,509.851 663.276,509.851 C 663.276,509.851 655.138,494.951 655.138,494.951" stroke="#60BF62" fill="#60BF62" stroke-width="1" />
  <path id="51" d="M 431.294,505.460 C 419.179,500.774 394.075,483.965 392.305,479.353 C 391.987,478.524 393.792,472.593 396.315,466.173 C 398.838,459.753 402.108,451.013 403.581,446.750 C 405.054,442.487 406.819,439 407.503,439 C 408.187,439 411.768,441.477 415.461,444.504 C 419.154,447.531 422.657,449.712 423.243,449.350 C 423.860,448.969 424.018,449.162 423.618,449.809 C 422.683,451.321 430.011,456.552 443.804,464.218 C 443.804,464.218 455.108,470.500 455.108,470.500 C 455.108,470.500 454.644,474.293 454.644,474.293 C 454.388,476.379 451.326,484.808 447.839,493.025 C 440.670,509.920 441.402,509.369 431.294,505.460" stroke="#60BF62" fill="#60BF62" stroke-width="1" />
  <path id="51" d="M 619.469,626.352 C 618.751,614.866 618.775,614.678 621.121,612.874 C 622.430,611.868 623.880,611.034 624.344,611.022 C 627.172,610.948 649.630,598.710 656.636,593.426 C 661.234,589.958 665.396,586.873 665.885,586.571 C 666.774,586.021 666.629,593.168 665.693,596 C 665.420,596.825 664.430,600.425 663.492,604 C 662.554,607.575 661.100,612.075 660.262,614 C 659.424,615.925 658.177,619.039 657.490,620.920 C 656.751,622.944 655.460,624.459 654.327,624.632 C 653.274,624.793 647.950,626.996 642.494,629.528 C 633.398,633.750 622.556,638 620.883,638 C 620.506,638 619.869,632.759 619.469,626.352" stroke="#60BF62" fill="#60BF62" stroke-width="1" />
  <path id="51" d="M 562.676,465.285 C 561.938,464.090 559.301,450.655 557.937,441.143 C 556.410,430.494 557.283,405.138 559.525,395 C 563.360,377.657 570.144,366.236 578.011,363.879 C 583.854,362.128 588.763,357.593 590.070,352.739 C 591.622,346.975 590.595,342.041 585.970,333.059 C 579.791,321.058 580.792,314.341 589.132,311.842 C 593.798,310.444 595.260,307.810 594.798,301.636 C 594.427,296.689 592.973,296.084 590.700,299.931 C 589.742,301.554 586.213,304.548 582.858,306.586 C 576.037,310.730 573.715,314.573 572.510,323.715 C 571.664,330.129 572.941,334.335 578.330,342.889 C 582.131,348.923 582.273,349.423 580.896,351.889 C 579.834,353.790 578.495,354.580 575.969,354.794 C 560.938,356.069 554.032,364.438 548.478,388.107 C 544.229,406.217 545.487,405.137 537.775,397.300 C 534.095,393.560 529.469,388.362 527.496,385.750 C 521.821,378.236 520.588,379.127 521.272,390.250 C 521.272,390.250 521.841,399.500 521.841,399.500 C 521.841,399.500 514.861,392 514.861,392 C 514.861,392 507.881,384.500 507.881,384.500 C 507.881,384.500 502.032,390.950 502.032,390.950 C 502.032,390.950 496.182,397.399 496.182,397.399 C 496.182,397.399 495.595,392.950 495.595,392.950 C 495.272,390.503 494.893,386.960 494.754,385.077 C 494.419,380.555 492.993,380.293 490.282,384.257 C 489.062,386.040 485.418,390.416 482.184,393.980 C 482.184,393.980 476.303,400.459 476.303,400.459 C 476.303,400.459 474.542,392.480 474.542,392.480 C 470.480,374.077 465.276,362.192 459.673,358.521 C 458.324,357.637 454.133,356.347 450.360,355.653 C 444.422,354.561 443.318,354.016 442.146,351.593 C 440.887,348.991 441.014,348.502 443.946,344.647 C 449.590,337.225 451.306,332.401 450.753,325.516 C 450.011,316.274 447.225,310.968 440.511,306.008 C 437.378,303.693 433.911,300.270 432.808,298.400 C 430.241,294.050 428.266,294.066 427.444,298.446 C 426.529,303.322 428.105,307.178 431.962,309.500 C 439.126,313.814 441,316.407 441,322.005 C 441,326.106 440.275,328.400 437.465,333.195 C 433.479,339.997 431.503,347.540 432.424,352.448 C 433.333,357.294 438.631,362.150 445.563,364.493 C 450.953,366.315 451.889,367.081 455.727,372.807 C 460.903,380.529 463.640,388.993 465.756,403.831 C 467.151,413.610 467.199,416.761 466.114,426.831 C 465.086,436.366 459.770,461.563 458.523,462.810 C 457.827,463.506 448.815,458.331 436.665,450.260 C 432.327,447.378 428.366,445.274 427.864,445.584 C 427.362,445.894 427.074,445.757 427.225,445.279 C 427.376,444.801 423.467,440.558 418.537,435.851 C 418.537,435.851 409.574,427.293 409.574,427.293 C 409.574,427.293 412.214,417.396 412.214,417.396 C 413.666,411.953 415.541,404.125 416.379,400 C 417.217,395.875 418.451,389.800 419.120,386.500 C 419.883,382.739 420.367,370.424 420.418,353.500 C 420.489,330.090 420.248,325.503 418.600,319 C 416.469,310.592 409.471,296.322 406.768,294.876 C 405.796,294.356 405,293.308 405,292.549 C 405,290.127 397.512,285.130 389.024,281.889 C 382.095,279.243 380.592,278.258 379.494,275.647 C 378.359,272.948 378.431,272.075 380.051,268.899 C 383.183,262.760 390.181,257.781 397.535,256.458 C 400.738,255.882 402.707,254.435 407.776,248.933 C 414.357,241.790 422.353,237 427.696,237 C 427.696,237 430.516,237 430.516,237 C 430.516,237 430.557,253.250 430.557,253.250 C 430.597,268.871 430.712,269.784 433.549,276.853 C 436.375,283.894 445.806,297 448.047,297 C 448.599,297 449.474,295.884 449.992,294.521 C 450.764,292.490 450.127,290.366 446.472,282.771 C 444.018,277.672 441.558,271.077 441.005,268.114 C 439.818,261.752 439.662,248 443.482,245.848 C 441.567,243.728 440,241.369 440,240.605 C 440,235.532 451.921,197.842 459.010,180.500 C 460.149,177.715 460.581,179.110 465.062,200 C 469.897,222.544 470.852,225.917 475.629,237.352 C 477.962,242.936 487.760,260 488.634,260 C 488.834,260 491.586,258.023 494.749,255.608 C 497.912,253.193 502.166,250.690 504.203,250.046 C 512.462,247.436 521.082,249.054 527.891,254.493 C 530.306,256.422 532.869,258 533.586,258 C 535.233,258 542.866,247.431 543.668,244.040 C 543.998,242.643 544.825,240.825 545.505,240 C 549.076,235.667 553.371,215.954 558.630,179.755 C 558.929,177.695 559.568,175.766 560.051,175.468 C 562.792,173.774 572.016,200.809 579.593,232.753 C 579.593,232.753 582.142,243.500 582.142,243.500 C 582.142,243.500 578.404,246.750 580.066,248.965 C 581.928,247.969 582,248.374 582,259.826 C 582,271.616 581.964,271.800 578,280.259 C 571.557,294.008 572.936,301.141 580.433,292.841 C 585.952,286.731 588.502,281.227 590.986,270.069 C 593.130,260.438 593.101,251.617 590.897,242.857 C 589.574,237.598 590.486,235.958 594.340,236.666 C 600.949,237.880 606.289,241.112 613.076,248.008 C 619.083,254.111 620.919,255.349 626.533,257.083 C 636.865,260.274 643,266.855 643,274.746 C 643,274.746 643,278.591 643,278.591 C 643,278.591 634.750,281.541 634.750,281.541 C 627.759,284.041 625.546,285.431 620.253,290.650 C 607.491,303.232 600.158,325.414 601.458,347.500 C 603.010,373.865 607.430,405.742 611.681,421.235 C 613.669,428.479 612.681,431.234 605.584,438.225 C 597.284,446.402 563.984,467.402 562.676,465.285M 502.923,362.923 C 504.615,361.231 506,359.457 506,358.982 C 506,357.003 503.752,356.990 500.581,358.950 C 497.118,361.090 495.556,363.473 496.556,365.090 C 497.598,366.776 499.829,366.017 502.923,362.923M 529.598,363.841 C 530.453,362.457 522.471,354.677 520.775,355.242 C 518.544,355.986 518.931,357.851 522.052,361.406 C 525.222,365.016 528.265,365.998 529.598,363.841M 491.359,341.803 C 492.237,340.402 491.374,339.083 486.394,334.226 C 483.078,330.992 479.140,326.740 477.644,324.778 C 474.266,320.349 469.681,318.190 467.499,320.001 C 464.411,322.564 465.801,325.735 473.250,333.124 C 484.061,343.848 488.688,346.065 491.359,341.803M 535.705,342.479 C 542.785,339.521 557,326.817 557,323.447 C 557,322.272 556.141,320.532 555.091,319.582 C 553.284,317.947 553.003,317.946 549.854,319.575 C 544.766,322.206 538,328.221 538,330.113 C 538,331.042 536.418,332.736 534.485,333.877 C 530.936,335.971 528.489,340.226 529.428,342.672 C 530.083,344.380 531.239,344.345 535.705,342.479" stroke="#60BF62" fill="#60BF62" stroke-width="1" />
  <path id="51" d="M 390,633.654 C 375.863,628.705 366.303,623.442 363.585,619.117 C 360.468,614.157 356.952,603.614 356.388,597.537 C 356.131,594.767 355.754,591.150 355.551,589.500 C 355.551,589.500 355.182,586.500 355.182,586.500 C 355.182,586.500 360.341,591.305 360.341,591.305 C 365.667,596.265 384.428,606.184 394.673,609.457 C 397.518,610.366 400.443,611.829 401.173,612.707 C 402.023,613.731 402.565,617.538 402.681,623.310 C 402.781,628.263 403.127,633.370 403.450,634.658 C 404.274,637.940 401.693,637.748 390,633.654" stroke="#60BF62" fill="#60BF62" stroke-width="1" />
  <path id="51" d="M 327.382,491.394 C 305.348,479.967 292.345,472.995 290.500,471.619 C 288.567,470.177 288.706,469.927 294.680,464.096 C 301.369,457.567 310.867,451 313.619,451 C 315.403,451 352.551,469.429 359.096,473.561 C 364.447,476.939 364.518,477.682 359.541,478.243 C 354.063,478.860 346.719,484.027 341.391,491.014 C 339.300,493.756 337.290,496 336.926,496 C 336.561,496 332.267,493.927 327.382,491.394" stroke="#60BF62" fill="#60BF62" stroke-width="1" />
  <path id="51" d="M 732.500,463.167 C 729.200,459.646 723.172,454.510 719.104,451.754 C 712.605,447.350 711.938,446.622 713.604,445.745 C 714.647,445.196 717.750,442.615 720.500,440.008 C 723.250,437.401 726.879,434.485 728.564,433.528 C 731.597,431.806 731.700,431.825 738.564,435.308 C 747.599,439.893 759.971,449.045 759.987,451.157 C 760.002,453.126 752.655,459.908 744.411,465.534 C 744.411,465.534 738.500,469.569 738.500,469.569 C 738.500,469.569 732.500,463.167 732.500,463.167" stroke="#60BF62" fill="#60BF62" stroke-width="1" />
  <path id="51" d="M 409.525,553.415 C 399.153,549.793 387.430,543.528 379.106,537.158 C 369.172,529.556 369.003,529.410 368.981,528.390 C 368.942,526.551 379.303,503.070 379.972,503.483 C 380.997,504.116 384,497.349 386.293,490.989 C 387.018,488.216 390.186,488.500 393.076,491.599 C 399.141,498.102 421.480,511.074 433.250,514.927 C 435.312,515.602 437,516.426 437,516.757 C 437,520.963 420.041,555.862 418,555.856 C 417.175,555.854 413.361,554.755 409.525,553.415" stroke="#60BF62" fill="#60BF62" stroke-width="1" />
  <path id="51" d="M 680.831,546.250 C 679.700,543.638 675.835,535.222 672.242,527.549 C 668.263,519.052 666.149,513.451 666.835,513.222 C 667.454,513.016 672.074,510.845 677.101,508.398 C 685.681,504.222 686.325,504.057 687.592,505.724 C 690.032,508.933 695.192,522.258 697.298,530.790 C 699.282,538.828 699.295,539.295 697.621,542.404 C 696.034,545.352 687.032,551 683.922,551 C 683.353,551 681.962,548.862 680.831,546.250" stroke="#60BF62" fill="#60BF62" stroke-width="1" />
  <path id="51" d="M 391.762,350.750 C 389.874,347.862 386.585,342.575 384.453,339 C 382.321,335.425 377.027,328.991 372.691,324.702 C 365.951,318.036 364.897,316.544 365.430,314.421 C 367.386,306.628 384.479,305.806 389.028,313.286 C 390.086,315.026 391.417,318.936 391.986,321.975 C 392.555,325.014 393.528,329.975 394.148,333 C 395.560,339.886 396.763,356 395.864,356 C 395.496,356 393.650,353.638 391.762,350.750" stroke="#60BF62" fill="#60BF62" stroke-width="1" />
  <path id="51" d="M 504.290,453.035 C 501.024,450.854 494.526,445.101 489.849,440.249 C 482.998,433.142 481.118,430.523 480.173,426.771 C 477.904,417.759 479.353,413.107 483.045,417.555 C 485.602,420.636 488.025,421.287 490.063,419.443 C 491.866,417.811 492.057,417.845 493.946,420.114 C 495.039,421.426 495.949,423.073 495.967,423.774 C 496.017,425.677 509.010,438 510.967,438 C 511.898,438 515.324,435.619 518.580,432.710 C 521.836,429.801 527.425,425.303 531,422.716 C 534.575,420.129 538.923,416.857 540.663,415.445 C 540.663,415.445 543.826,412.878 543.826,412.878 C 543.826,412.878 543.362,417.189 543.362,417.189 C 542.209,427.888 542.240,427.831 531.784,438.825 C 521.136,450.021 513.302,457 511.382,457 C 510.747,457 507.556,455.216 504.290,453.035" stroke="#60BF62" fill="#60BF62" stroke-width="1" />
  <path id="51" d="M 578.659,507.750 C 574.307,497.410 572.723,493.484 569.057,483.944 C 566.826,478.138 565.007,472.738 565.016,471.944 C 565.025,471.150 567.365,469.375 570.218,468 C 582.340,462.157 598.097,451.882 613.540,439.752 C 613.540,439.752 615.765,438.004 615.765,438.004 C 615.765,438.004 619.955,450.224 619.955,450.224 C 622.259,456.945 625.692,465.791 627.582,469.883 C 630.907,477.080 630.964,477.406 629.331,479.911 C 624.426,487.433 612.320,496.883 599.076,503.530 C 593.223,506.468 581.865,511 580.357,511 C 580.175,511 579.411,509.538 578.659,507.750" stroke="#60BF62" fill="#60BF62" stroke-width="1" />
  <path id="51" d="M 505.500,726.231 C 503.300,724.774 498.125,721.357 494,718.637 C 475.950,706.736 449.461,682.710 438.759,668.534 C 431.190,658.508 423.654,643.128 420.858,632 C 419.016,624.668 418.805,621.762 419.324,610.849 C 419.878,599.184 420.315,597.013 424.932,583.008 C 427.996,573.713 432.329,563.294 436.096,556.159 C 450.078,529.679 466.051,497.941 469.565,489.658 C 471.628,484.795 473.904,480.590 474.623,480.314 C 476.302,479.670 485.238,484.779 495.861,492.457 C 500.460,495.781 506.027,499.764 508.233,501.309 C 508.233,501.309 512.243,504.118 512.243,504.118 C 512.243,504.118 525.727,495.309 525.727,495.309 C 533.143,490.464 540.965,484.985 543.108,483.132 C 543.108,483.132 547.005,479.763 547.005,479.763 C 547.005,479.763 553.863,494.132 553.863,494.132 C 557.635,502.035 564.914,516.375 570.038,526 C 591.139,565.633 596.555,577.766 601.506,596.500 C 603.729,604.911 604.602,625.263 603.033,632.088 C 601.480,638.843 593.703,655.268 587.715,664.437 C 579.812,676.537 557.017,699.503 543.268,709.217 C 520.691,725.168 514.409,729.044 511.300,728.940 C 510.310,728.907 507.700,727.688 505.500,726.231" stroke="#60BF62" fill="#60BF62" stroke-width="1" />
  <path id="51" d="M 259.652,502.278 C 246.830,493.686 239.992,487.080 240.024,483.315 C 240.073,477.449 245.811,466.557 253.866,457.037 C 253.866,457.037 256.797,453.573 256.797,453.573 C 256.797,453.573 261.148,457.311 261.148,457.311 C 263.541,459.367 268.987,463.551 273.250,466.608 C 277.513,469.665 281,472.427 281,472.746 C 281,473.065 279.682,475.389 278.071,477.912 C 273.526,485.032 270.891,492.790 270.165,501.189 C 270.165,501.189 269.500,508.878 269.500,508.878 C 269.500,508.878 259.652,502.278 259.652,502.278" stroke="#60BF62" fill="#60BF62" stroke-width="1" />
  <path id="51" d="M 605.217,666.750 C 606.958,663.862 610.052,658.382 612.094,654.570 C 612.094,654.570 615.807,647.640 615.807,647.640 C 615.807,647.640 630.153,642.723 630.153,642.723 C 647.104,636.914 650.642,636.079 649.373,638.188 C 646.574,642.838 642.273,648.047 640.839,648.525 C 639.926,648.829 638.462,650.173 637.585,651.511 C 634.954,655.526 625.390,661.947 614.334,667.123 C 608.605,669.805 603.498,672 602.985,672 C 602.472,672 603.476,669.638 605.217,666.750" stroke="#60BF62" fill="#60BF62" stroke-width="1" />
  <path id="51" d="M 852.558,594.399 C 851.629,587.681 849.284,584.015 845.026,582.630 C 840.667,581.212 839.036,578.058 839.009,571 C 838.991,566.133 838.472,564.752 834.500,559 C 832.032,555.425 830.009,551.963 830.006,551.307 C 830.003,550.651 830.872,548.626 831.938,546.807 C 835.176,541.281 838,529.201 838,520.875 C 838,512.252 835.340,502.173 831.189,495.071 C 825.796,485.843 814.483,476.677 804.500,473.447 C 802.527,472.808 802.528,472.789 804.588,471.992 C 805.736,471.548 809.230,470.865 812.351,470.475 C 821.743,469.302 821.604,468.999 805.565,455.620 C 795.242,447.009 785.437,439.886 775.211,433.573 C 767.736,428.958 741.803,416.415 733.741,413.516 C 727.457,411.256 726.198,410.467 727.114,409.363 C 727.736,408.613 729.332,408 730.662,408 C 733.956,408 741.223,404.175 740.738,402.696 C 739.643,399.358 715.258,396.889 703.458,398.921 C 685.382,402.034 674.285,407.845 659.811,421.779 C 649.432,431.771 643.746,438.817 638.669,447.976 C 638.669,447.976 635.105,454.406 635.105,454.406 C 635.105,454.406 633.976,451.453 633.976,451.453 C 627.749,435.165 617,397.592 617,392.115 C 617,388.618 629.683,378.662 638.599,375.160 C 644.927,372.674 645.421,371.005 639.833,370.985 C 635.497,370.970 631.446,369.286 633.595,368.392 C 634.197,368.141 637.630,366.006 641.223,363.646 C 648.998,358.539 659.865,354.860 669.500,354.072 C 677.732,353.399 678.643,351.766 672.661,348.410 C 672.661,348.410 668.823,346.257 668.823,346.257 C 668.823,346.257 672.161,345.080 672.161,345.080 C 677.985,343.026 695.236,342.011 706.907,343.035 C 712.908,343.562 718.512,344.259 719.361,344.585 C 720.210,344.911 721.417,344.861 722.043,344.474 C 723.354,343.664 717.789,337.478 711.500,332.754 C 711.500,332.754 707.500,329.749 707.500,329.749 C 707.500,329.749 715.500,330.422 715.500,330.422 C 719.900,330.792 725.222,331.549 727.326,332.106 C 732.328,333.429 733.621,332.292 734.222,326.039 C 735.080,317.112 739.355,313.902 745.907,317.265 C 750.301,319.520 751.107,324.458 750.843,347.500 C 750.609,367.921 750.676,368.720 753.275,376.500 C 756.280,385.492 762.833,394.533 769.891,399.424 C 775.851,403.554 776.686,402.254 774.630,392.050 C 771.592,376.971 773.267,364.933 778.500,364.233 C 783.606,363.550 792.342,372.858 799.888,387.021 C 802.226,391.410 804.504,395 804.948,395 C 806.385,395 807.724,392.587 808.415,388.750 C 808.787,386.688 809.500,385 810.001,385 C 811.558,385 818.289,389.897 823.101,394.531 C 831.587,402.704 838,418.846 838,432.034 C 838,438.166 838.228,438.842 841.394,442.055 C 851.608,452.423 852.920,453.480 854.102,452.298 C 854.973,451.427 854.997,450.143 854.198,447.312 C 850.154,432.993 849.175,428.713 848.523,422.505 C 848.523,422.505 847.788,415.510 847.788,415.510 C 847.788,415.510 853.396,420.813 853.396,420.813 C 858.507,425.647 861,426.634 861,423.822 C 861,423.239 859.386,420.105 857.414,416.858 C 849.754,404.248 841.355,384.246 842.174,380.563 C 842.439,379.372 843.438,379.573 847.469,381.625 C 850.202,383.016 854.424,385.494 856.852,387.133 C 862.214,390.751 864.194,390.329 863.681,385.677 C 863.477,383.826 863.022,381.844 862.669,381.273 C 862.316,380.702 860.647,374.895 858.961,368.368 C 855.280,354.120 853.640,331.373 856.144,329.295 C 857.308,328.329 858.456,329.992 862.713,338.812 C 870.014,353.939 875.088,365.729 880.009,379 C 882.354,385.325 884.662,390.927 885.137,391.450 C 886.820,393.302 888.109,390.261 889.465,381.236 C 890.214,376.253 891.850,367.588 893.102,361.982 C 894.902,353.918 895.551,352.258 896.209,354.036 C 897.878,358.548 900.028,376.004 901.501,397 C 903.842,430.369 905.843,434.838 912.783,422.190 C 912.783,422.190 916.246,415.879 916.246,415.879 C 916.246,415.879 921.206,426.190 921.206,426.190 C 928.333,441.003 934.489,455.721 935.975,461.500 C 936.682,464.250 937.410,470.775 937.594,476 C 937.777,481.225 937.944,485.811 937.964,486.191 C 937.984,486.571 940.489,490.516 943.531,494.958 C 946.573,499.400 949.572,504.264 950.196,505.767 C 951.561,509.058 952.849,521.024 951.766,520.355 C 951.528,520.194 949.089,523.040 949,520.655 C 949,518.943 945.209,515.458 944.317,516.350 C 943.948,516.719 944.551,517.865 945.658,518.896 C 947.470,520.585 947.589,521.445 946.853,527.557 C 946.046,534.264 941.982,542.888 937.873,546.612 C 936.379,547.966 936.281,547.367 936.677,539.294 C 936.974,533.232 936.703,529.748 935.804,528.079 C 934.001,524.733 932.180,524.394 931.111,527.207 C 928.671,533.626 915.992,541.307 904.883,543.096 C 901.453,543.648 898.307,544.311 897.892,544.567 C 897.477,544.823 896.905,544.656 896.621,544.196 C 896.337,543.736 898.614,541.839 901.681,539.980 C 912.950,533.151 926.164,517.764 923.257,514.857 C 922.353,513.953 920.707,514.410 916.177,516.825 C 910.487,519.857 898.320,523.653 897.361,522.694 C 897.105,522.438 899.166,519.859 901.942,516.964 C 906.599,512.107 908.980,507.296 908.994,502.719 C 909.003,499.769 906.502,499.712 899.835,502.512 C 889.814,506.720 881.094,509.761 880.565,509.232 C 880.298,508.965 880.737,507.476 881.540,505.923 C 883.494,502.144 883.382,498.638 881.250,496.812 C 880.287,495.988 875.774,493.590 871.221,491.485 C 861.307,486.901 859.942,487.427 863.208,494.572 C 864.978,498.444 865.466,501.334 865.481,508.057 C 865.499,515.933 865.205,517.207 861.805,524.057 C 857.717,532.292 858.052,534.143 863.192,531.729 C 868.287,529.336 876.006,527.179 881.217,526.693 C 885.494,526.294 885.846,526.419 884.983,528.032 C 883.497,530.808 875.268,538.719 870.338,542.111 C 867.883,543.800 862.996,546.487 859.477,548.083 C 850.384,552.206 848.828,556.309 855.121,559.563 C 857.424,560.754 858,561.721 858,564.403 C 858,566.247 858.694,568.331 859.542,569.035 C 860.821,570.096 861.581,569.946 864.001,568.157 C 865.606,566.971 867.253,566 867.662,566 C 868.071,566 869.881,564.570 871.684,562.822 C 871.684,562.822 874.962,559.644 874.962,559.644 C 874.962,559.644 874.106,562.630 874.106,562.630 C 873.087,566.183 870.448,571.481 867.866,575.154 C 866.840,576.614 866,579.200 866,580.901 C 866,583.905 861.335,590.388 856.678,593.857 C 855.676,594.603 854.498,596.178 854.060,597.357 C 853.423,599.071 853.122,598.479 852.558,594.399M 908.363,476.222 C 908.628,475.794 905.914,472.531 902.334,468.972 C 898.753,465.413 893.080,458.337 889.725,453.250 C 883.803,444.269 882.675,443.098 881.609,444.823 C 880.791,446.146 878.002,460.258 878.001,463.076 C 878,466.989 881.523,469.486 892.500,473.356 C 902.359,476.832 907.421,477.747 908.363,476.222" stroke="#60BF62" fill="#60BF62" stroke-width="1" />
  <path id="51" d="M 402.004,662.250 C 392.776,657.395 382.136,649.436 382.049,647.322 C 382.022,646.674 380.706,645.099 379.124,643.822 C 377.542,642.545 375.727,640.487 378.424,637.877 C 379.053,638.895 393.127,643.405 400.829,645.057 C 405.764,646.115 406.280,646.517 408.803,651.270 C 410.286,654.065 412.522,657.427 413.770,658.741 C 417.107,662.253 419.100,665.567 418.337,666.330 C 416.486,668.181 410.379,666.656 402.004,662.250" stroke="#60BF62" fill="#60BF62" stroke-width="1" />
  <path id="51" d="M 806.584,350.278 C 805.892,348.115 799.347,341.197 795.565,338.632 C 794.028,337.589 791.573,334.054 790.010,330.632 C 788.470,327.260 786.037,322.950 784.605,321.056 C 783.172,319.162 782,316.395 782,314.908 C 782,313.421 780.330,308.959 778.289,304.991 C 766.739,282.537 745.949,274.613 719.040,282.408 C 713.837,283.915 708.209,285.721 706.532,286.422 C 704.855,287.123 702.659,287.407 701.650,287.053 C 699.827,286.413 708.949,279.868 731.641,265.537 C 744.330,257.523 755.955,244.508 760.680,233.024 C 765.269,221.871 762.842,212.195 753.038,202.538 C 749.058,198.618 747.756,197.844 746.781,198.819 C 745.806,199.794 745.840,200.513 746.941,202.275 C 752.284,210.823 753.434,214.479 753.465,223 C 753.492,230.591 753.216,231.897 750.874,235.205 C 750.874,235.205 748.251,238.909 748.251,238.909 C 748.251,238.909 747.699,234.791 747.699,234.791 C 747.106,230.372 744.108,225.500 741.981,225.500 C 741.109,225.500 740.617,227.153 740.493,230.500 C 740.046,242.557 734.966,252.305 724.168,261.822 C 724.168,261.822 717.884,267.361 717.884,267.361 C 717.884,267.361 722.241,259.930 722.241,259.930 C 727.413,251.110 729.790,245.087 730.920,237.942 C 731.761,232.622 730.801,226.614 728.925,225.454 C 728.375,225.114 724.791,227.367 720.962,230.461 C 714.599,235.602 713.991,235.889 713.901,233.793 C 713.589,226.529 713.576,226.496 711,226.623 C 709.625,226.691 705.854,227.727 702.620,228.927 C 694.597,231.904 685.106,232.889 675.510,231.743 C 661.239,230.038 661.452,230.007 661.820,233.796 C 662.295,238.690 664.617,243.570 668.528,247.899 C 671.891,251.622 672.022,252.064 672.330,260.813 C 672.647,269.818 673.762,273 676.602,273 C 677.348,273 678.837,271.281 679.909,269.179 C 682.249,264.593 690.725,254 692.055,254 C 693.516,254 693.148,267.902 691.539,273.500 C 690.748,276.250 689.093,281.237 687.860,284.582 C 685.893,289.920 685.776,291.047 686.910,293.784 C 689.070,298.998 692.379,300.502 701.653,300.486 C 701.653,300.486 709.806,300.472 709.806,300.472 C 709.806,300.472 706.633,303.986 706.633,303.986 C 704.888,305.919 702.794,308.402 701.980,309.504 C 700.228,311.876 691.843,315.012 687.270,315.005 C 682.569,314.998 676.251,312.171 674.150,309.136 C 673.146,307.686 671.731,304.250 671.005,301.500 C 669.507,295.826 667.329,291.136 662.178,282.500 C 656.655,273.240 652.562,268.302 641.844,257.968 C 641.844,257.968 631.958,248.436 631.958,248.436 C 631.958,248.436 633.979,242.562 633.979,242.562 C 635.091,239.331 636,235.243 636,233.478 C 636,229.461 632.899,225.405 629.269,224.676 C 627.746,224.370 622.675,223.208 618,222.094 C 613.325,220.980 604.586,219.078 598.580,217.868 C 590.035,216.146 587.003,215.082 584.643,212.973 C 581.729,210.369 581.626,209.979 581.564,201.389 C 581.458,186.564 585.427,182.549 599.607,183.141 C 603.612,183.308 607.214,183.119 607.611,182.722 C 608.008,182.325 606.622,180.312 604.531,178.250 C 602.440,176.188 599.160,171.227 597.243,167.228 C 593.911,160.277 593.777,159.572 594.200,151.228 C 594.697,141.415 596.616,136.620 602.186,131.273 C 602.186,131.273 605.547,128.046 605.547,128.046 C 605.547,128.046 605.524,136.781 605.524,136.781 C 605.503,144.693 605.816,146.160 608.853,152.340 C 613.589,161.979 624.385,172.422 635.372,177.993 C 643.254,181.989 646.940,182.742 647.653,180.500 C 647.828,179.950 645.283,176.575 641.997,173 C 630.922,160.949 625.569,146.347 628.095,135.074 C 629.493,128.835 633.816,121.265 638.634,119.408 C 637.075,121.811 636.838,123.717 637.187,131.018 C 637.756,142.911 641.281,150.139 650.860,159.053 C 659.815,167.386 663.733,170.283 664.992,169.505 C 665.551,169.160 665.883,166.709 665.730,164.058 C 665.730,164.058 665.452,159.238 665.452,159.238 C 665.452,159.238 668.520,160.883 668.520,160.883 C 673.547,163.578 681.882,169.891 692.500,179.048 C 708.741,193.055 719.502,199.696 731.947,203.392 C 740.594,205.960 740.549,204.154 731.744,195.248 C 722.908,186.311 721.370,184.410 717.097,177.164 C 713.583,171.204 713.731,171.146 722.500,175.035 C 737.273,181.587 741.173,181.140 734.088,173.706 C 725.414,164.604 717.994,150.122 715.540,137.500 C 714.684,133.100 713.757,128.500 713.480,127.277 C 712.439,122.690 716.253,126.547 734.812,148.850 C 754.046,171.964 767.083,185.312 769.916,184.791 C 770.816,184.625 772.147,182.452 773,179.755 C 773.825,177.145 774.830,175.008 775.234,175.005 C 775.638,175.002 777.786,177.877 780.007,181.393 C 786.236,191.256 791.221,195.168 807.598,203.047 C 827.025,212.393 832.268,215.797 840,224.082 C 840,224.082 846.500,231.047 846.500,231.047 C 846.500,231.047 851.419,228.523 851.419,228.523 C 854.125,227.135 856.825,226.017 857.419,226.038 C 859.301,226.104 865.742,236.391 867.403,241.984 C 869.295,248.354 869.433,253.460 867.837,258.037 C 867.837,258.037 866.674,261.373 866.674,261.373 C 866.674,261.373 863.858,257.999 863.858,257.999 C 862.309,256.143 860.764,254.903 860.424,255.243 C 860.084,255.583 859.709,259.604 859.590,264.180 C 859.354,273.248 858.374,275.806 852.576,282.477 C 848.612,287.037 847.053,286.733 849.558,281.888 C 852.069,277.032 852.399,267.533 850.267,261.500 C 848.038,255.194 845.997,255.024 844.258,261 C 842.724,266.271 841.742,267.646 836.906,271.291 C 833.059,274.191 830.918,274.940 833.308,272.550 C 836.392,269.466 836.512,254.500 833.473,251.978 C 832.495,251.166 830.813,251.653 826.826,253.903 C 815.774,260.140 801.289,261.429 787.071,257.440 C 778.542,255.047 778.015,256.014 782.898,265.093 C 785.089,269.167 788.076,275.823 789.536,279.884 C 792.197,287.288 795.962,305.795 795.987,311.595 C 795.995,313.456 796.837,315.448 798.099,316.590 C 800.176,318.469 800.224,318.458 802.686,315.495 C 806.493,310.913 808.954,304.951 808.978,300.250 C 809.007,294.645 810.466,294.858 812.393,300.750 C 815.455,310.112 814.801,314.679 809.317,322.211 C 806.550,326.011 806.086,327.293 806.916,328.843 C 809.673,333.994 817.440,332.628 824.731,325.710 C 824.731,325.710 827.962,322.644 827.962,322.644 C 827.962,322.644 827.115,325.600 827.115,325.600 C 825.381,331.648 822.012,336.707 814.683,344.278 C 808.615,350.545 807.042,351.711 806.584,350.278M 815.097,235.451 C 821.835,232.037 821.361,230.180 812.987,227.190 C 804.932,224.314 793.071,221.759 791.168,222.489 C 790.112,222.894 789.888,224.132 790.308,227.263 C 790.877,231.502 793.782,234.956 798.500,237.005 C 802.562,238.769 809.907,238.081 815.097,235.451M 686,204.109 C 687.471,203.702 688.624,202.562 688.802,201.340 C 689.344,197.618 673.106,187.795 666.090,187.600 C 666.090,187.600 662.500,187.500 662.500,187.500 C 662.500,187.500 662.204,192.557 662.204,192.557 C 661.853,198.565 664.284,202.443 669.313,203.898 C 673.052,204.980 682.423,205.098 686,204.109" stroke="#60BF62" fill="#60BF62" stroke-width="1" />
  <path id="57" d="M 380.084,502.500 C 380.084,501.400 380.946,498.925 382,497 C 383.416,494.413 383.916,494.022 383.916,495.500 C 383.916,496.600 383.054,499.075 382,501 C 380.584,503.587 380.084,503.978 380.084,502.500" stroke="#75D975" fill="#75D975" stroke-width="1" />
  <path id="57" d="M 618.058,637.250 C 618.090,635.737 618.488,632.700 618.943,630.500 C 619.762,626.543 619.771,626.561 619.885,632.250 C 619.948,635.412 620.353,638 620.785,638 C 622.469,638 632.928,633.950 641.500,629.979 C 652.468,624.898 655,623.888 655,624.594 C 655,626.094 622.348,640 618.825,640 C 618.371,640 618.026,638.763 618.058,637.250" stroke="#75D975" fill="#75D975" stroke-width="1" />
  <path id="57" d="M 615.685,646.379 C 615.976,645.621 617.046,645 618.062,645 C 620.252,645 639.017,638.357 647.374,634.624 C 650.605,633.181 653.428,632 653.647,632 C 653.866,632 653.339,633.078 652.476,634.396 C 651.547,635.814 649.599,636.995 647.703,637.290 C 645.941,637.564 639.775,639.443 634,641.465 C 616.580,647.565 615.075,647.969 615.685,646.379" stroke="#75D975" fill="#75D975" stroke-width="1" />
  <path id="57" d="M 657.012,621.871 C 657.005,621.525 658.099,618.825 659.442,615.871 C 660.785,612.917 662.821,607.125 663.966,603 C 665.540,597.332 665.913,596.599 665.496,600 C 664.772,605.902 662.352,613.182 659.400,618.345 C 658.093,620.630 657.019,622.217 657.012,621.871" stroke="#75D975" fill="#75D975" stroke-width="1" />
  <path id="57" d="M 412.671,657.750 C 411.915,656.513 410.107,653.400 408.655,650.834 C 406.255,646.595 405.537,646.066 400.784,645.047 C 393.120,643.403 379.051,638.892 372.577,636.500 C 371.165,634.850 370.008,633.184 370.005,632.799 C 370.002,632.414 373.263,633.635 377.250,635.514 C 383.397,638.410 395.280,642.222 405,644.414 C 406.897,644.842 408.411,646.789 411.274,652.489 C 414.849,659.604 415.651,662.627 412.671,657.750" stroke="#75D975" fill="#75D975" stroke-width="1" />
  <path id="57" d="M 391.563,635.933 C 382.377,632.823 366.530,625.137 367.436,624.231 C 367.716,623.951 370.994,625.313 374.722,627.256 C 382.186,631.146 398.506,637 401.888,637 C 403.653,637 403.945,636.553 403.519,634.500 C 403.234,633.125 402.773,630.902 402.496,629.561 C 402.219,628.220 402.356,626.898 402.800,626.624 C 403.244,626.350 404.044,629.021 404.578,632.562 C 404.578,632.562 405.548,639 405.548,639 C 405.548,639 403.024,638.979 403.024,638.979 C 401.636,638.968 396.478,637.597 391.563,635.933" stroke="#75D975" fill="#75D975" stroke-width="1" />
  <path id="57" d="M 451.274,461.086 C 438.693,454.073 425.372,444.345 416.238,435.500 C 416.238,435.500 407.977,427.500 407.977,427.500 C 407.977,427.500 409.961,420.999 409.961,420.999 C 412.987,411.086 417.694,387.741 419.035,376 C 419.695,370.225 420.466,365.275 420.750,365 C 421.789,363.992 419.801,382.775 417.892,392 C 416.811,397.225 415.531,403.750 415.049,406.500 C 414.567,409.250 413.128,415.043 411.850,419.374 C 411.850,419.374 409.527,427.247 409.527,427.247 C 409.527,427.247 418.115,435.439 418.115,435.439 C 425.249,442.244 434.353,449.070 446.530,456.741 C 450.380,459.167 458.203,463.130 458.519,462.814 C 459.380,461.953 464.393,440.430 465.580,432.500 C 465.580,432.500 466.927,423.500 466.927,423.500 C 466.927,423.500 466.476,432 466.476,432 C 466.138,438.386 460.735,465.009 459.660,465.586 C 459.572,465.633 455.799,463.608 451.274,461.086" stroke="#75D975" fill="#75D975" stroke-width="1" />
</g><g id="dragon 2"><path id="51" d="M 380.330,857.491 C 378.302,851.408 376.697,850.043 369.233,848.049 C 366.886,847.422 363.328,845.471 361.325,843.712 C 357.674,840.506 353.028,832.102 353.010,828.668 C 352.995,825.765 347.268,813.476 342.486,806.084 C 336.790,797.279 324.837,784.520 318.453,780.431 C 311.969,776.278 305.115,774.276 294.405,773.407 C 288.145,772.899 285.670,772.303 285.247,771.201 C 284.278,768.675 288.892,761.417 293.630,758.014 C 296.089,756.248 297.935,754.285 297.732,753.652 C 297.529,753.019 295.315,751.375 292.811,750 C 290.307,748.625 283.488,744.350 277.659,740.500 C 277.659,740.500 267.060,733.500 267.060,733.500 C 267.060,733.500 274.780,732.245 274.780,732.245 C 285.716,730.467 295.918,727.942 296.595,726.846 C 297.371,725.591 295.277,723.205 291.015,720.487 C 287.519,718.258 274.997,706.216 275.003,705.090 C 275.005,704.765 279.933,704.500 285.955,704.500 C 299.976,704.500 301.120,703.618 294.575,697.857 C 294.575,697.857 289.805,693.658 289.805,693.658 C 289.805,693.658 292.296,692.353 292.296,692.353 C 293.666,691.635 298.729,690.360 303.546,689.520 C 312.234,688.005 315.840,686.440 314.267,684.867 C 313.817,684.417 309.860,683.323 305.474,682.437 C 301.088,681.550 291.986,678.977 285.246,676.717 C 269.784,671.533 268.551,672.139 275.863,681.328 C 278.688,684.878 281,688.134 281.973,693.508 C 279.094,694.422 275.704,694.975 268.734,695.669 C 262.203,696.319 261.399,696.977 263.216,700.184 C 265.631,704.445 274.723,716.497 277.332,718.895 C 279.827,721.188 280.120,724.120 277.661,722.183 C 277.022,721.680 273.414,720.965 269.642,720.595 C 259.192,719.569 244.381,712.260 235.168,703.581 C 228.525,697.324 221.519,688.124 217.148,679.924 C 213.013,672.167 209,658.324 209,651.820 C 209,646.914 212.057,638.917 215.520,634.766 C 222.934,625.878 236.641,616.915 247.857,613.619 C 247.857,613.619 253.214,612.044 253.214,612.044 C 253.214,612.044 252.626,615.772 252.626,615.772 C 252.303,617.822 251.744,624.274 251.384,630.108 C 250.706,641.101 251.418,643.557 254.531,640.974 C 256.521,639.322 260.141,640.406 267.940,644.986 C 274.526,648.854 279.315,653.277 284.467,660.250 C 288.933,666.295 291.512,665.194 289.866,657.946 C 288.840,653.426 289.630,638 290.888,638 C 291.262,638 292.382,639.377 293.376,641.060 C 294.370,642.743 298.855,647.837 303.342,652.381 C 311.757,660.902 320.024,666.044 333.296,671.010 C 341.728,674.165 342.652,673.326 338.445,666.339 C 335.032,660.671 332.587,654.080 333.542,653.125 C 333.810,652.857 335.486,654.022 337.265,655.716 C 341.895,660.123 353.012,666.643 362.410,670.462 C 384.441,679.415 390.807,683.569 405,698.250 C 412.470,705.977 415.141,708.122 417.500,708.288 C 420.354,708.489 420.515,708.293 420.808,704.245 C 421.102,700.181 421.236,700.020 423.808,700.636 C 429.664,702.039 436.966,707.997 439.946,713.804 C 443.449,720.630 445.041,732.488 443.115,737.397 C 442.462,739.061 442.106,738.846 440.214,735.639 C 439.028,733.629 436.918,731.464 435.525,730.829 C 432.846,729.608 430.965,730.365 432.604,732.004 C 434.396,733.796 432.431,748.379 429.549,754.674 C 427.036,760.164 418.211,772.921 416.889,772.975 C 416.553,772.989 417.363,768.612 418.688,763.250 C 421.932,750.125 421.591,741.902 417.560,736.086 C 415.856,733.628 414.021,732.041 413.089,732.221 C 412.054,732.420 409.916,737.014 406.900,745.513 C 404.365,752.656 401.128,760.499 399.706,762.943 C 398.284,765.387 397.388,767.819 397.715,768.348 C 398.042,768.877 397.825,769.010 397.233,768.644 C 396.641,768.278 395.870,764.947 395.520,761.240 C 394.544,750.913 391.824,738.869 390.338,738.299 C 389.605,738.018 386.830,739.184 384.172,740.890 C 375.722,746.312 368.648,748.326 358,748.344 C 350.388,748.357 346.924,747.837 340.573,745.730 C 328.871,741.848 328.319,742.884 336.922,752.576 C 346.054,762.864 355.578,783.462 358.538,799.330 C 359.310,803.470 361.198,804.911 363.427,803.061 C 365.204,801.586 369.295,792.962 368.565,792.232 C 368.264,791.931 368.463,791.147 369.007,790.491 C 369.552,789.835 370.248,787.094 370.553,784.399 C 370.858,781.704 371.334,778.010 374.096,775.395 C 376.871,778.923 380,788.516 380,793.498 C 380,800.781 377.493,806.930 372.429,812.072 C 367.893,816.677 367.353,818.993 370.809,819.007 C 372.612,819.014 377.142,824.893 378.041,828.393 C 379.010,832.168 382.331,831.450 386.918,826.473 C 392.300,820.634 394.756,815.091 395.822,806.377 C 395.822,806.377 396.663,799.500 396.663,799.500 C 396.663,799.500 400.057,806.500 400.057,806.500 C 402.710,811.973 403.436,814.703 403.387,819.013 C 403.319,824.923 402.343,827.417 397.855,833.144 C 395.741,835.842 395,837.883 395,841.009 C 395,844.652 394.455,845.730 391.031,848.866 C 388.848,850.865 386.528,854.075 385.875,856 C 385.222,857.925 384.130,860.319 383.450,861.320 C 382.351,862.937 382.003,862.510 380.330,857.491M 380.205,711.195 C 381.888,709.512 380.271,708.154 371.173,703.612 C 349.702,692.891 337.747,692.952 348.155,703.729 C 354.826,710.636 361.818,713.135 372.842,712.551 C 376.330,712.366 379.644,711.756 380.205,711.195" stroke="#60BF62" fill="#60BF62" stroke-width="1" />
  <path id="51" d="M 282.585,624.484 C 281.576,620.463 269.144,608.697 264.170,607.056 C 261.876,606.299 260,605.594 260,605.489 C 260,603.867 262.420,599.141 263.051,599.531 C 263.522,599.822 264.422,598.145 265.052,595.805 C 267.293,587.484 277.844,569.314 283.544,563.959 C 284.895,562.690 286,561.055 286,560.326 C 286,558.497 290.651,558.648 291.362,560.500 C 291.679,561.325 293.027,562 294.359,562 C 296.615,562 307.035,568.863 309.672,572.085 C 310.609,573.230 309.632,575.516 304.786,583.508 C 297.128,596.137 288.742,612.864 286.490,620 C 284.326,626.856 283.437,627.877 282.585,624.484" stroke="#60BF62" fill="#60BF62" stroke-width="1" />
  <path id="51" d="M 211.078,631 C 210.921,626.176 222.519,601.645 227.633,595.984 C 229.613,593.793 231.828,592 232.557,592 C 237.310,590.410 231.702,590.410 234.833,589.486 C 235.200,589.478 239.775,587.375 245,584.811 C 253.338,580.720 263.752,577.418 264.852,578.518 C 265.059,578.725 264.277,580.862 263.114,583.264 C 261.951,585.666 261,588.228 261,588.956 C 261,589.684 259.845,593.763 258.433,598.019 C 258.433,598.019 255.866,605.758 255.866,605.758 C 255.866,605.758 250.869,606.239 250.869,606.239 C 243.687,606.929 228.615,614.705 219.920,622.207 C 216.009,625.582 212.431,629.278 211.968,630.421 C 211.451,631.700 211.108,631.923 211.078,631" stroke="#60BF62" fill="#60BF62" stroke-width="1" />
  <path id="51" d="M 278.174,644.945 C 275.930,642.104 268.261,636.902 261,633.297 C 259.075,632.341 257.344,631.465 257.153,631.349 C 256.962,631.233 257.359,627.082 258.037,622.123 C 258.037,622.123 259.269,613.107 259.269,613.107 C 259.269,613.107 264.885,615.963 264.885,615.963 C 271.688,619.423 276.225,623.978 278.898,630.030 C 281.042,634.883 282.870,648.037 281.388,647.945 C 280.900,647.915 279.453,646.564 278.174,644.945" stroke="#60BF62" fill="#60BF62" stroke-width="1" />
  <path id="51" d="M 243,576.534 C 243,574.618 253.926,566 260.500,563.448 C 263.795,563.276 269.097,561.588 270.087,560.395 C 271.495,558.699 274.186,558.587 275.758,560.159 C 276.636,561.037 276.154,562.308 273.766,565.409 C 272.033,567.659 270.510,569.654 270.382,569.842 C 270.254,570.030 266.629,570.987 262.325,571.968 C 258.021,572.949 252.475,574.477 250,575.362 C 245.470,576.982 243,577.395 243,576.534" stroke="#60BF62" fill="#60BF62" stroke-width="1" />
  <path id="57" d="M 262,562.702 C 265.179,560.890 270.356,559.616 269.605,560.831 C 269.295,561.332 267.795,561.994 266.271,562.301 C 264.747,562.609 262.600,563.145 261.500,563.494 C 260.193,563.908 260.367,563.633 262,562.702" stroke="#75D975" fill="#75D975" stroke-width="1" />
  <path id="57" d="M 235.612,588.899 C 242.897,583.088 257.757,577 264.654,577 C 264.654,577 267.978,577 267.978,577 C 267.978,577 264.739,583.447 264.739,583.447 C 262.958,586.993 261.349,589.465 261.164,588.940 C 260.979,588.415 261.819,585.941 263.029,583.441 C 264.239,580.941 265.059,578.725 264.852,578.518 C 264.645,578.311 262.230,578.614 259.487,579.191 C 253.396,580.473 243.486,584.855 237.413,588.954 C 231.582,592.889 230.646,592.860 235.612,588.899" stroke="#75D975" fill="#75D975" stroke-width="1" />
  <path id="57" d="M 236,583.211 C 236,582.768 237.866,580.627 240.147,578.453 C 242.428,576.279 243.976,575.062 243.588,575.750 C 242.640,577.429 244.540,577.315 250,575.362 C 252.475,574.477 258.021,572.949 262.325,571.968 C 266.629,570.987 270.254,570.030 270.382,569.842 C 270.510,569.654 272.033,567.659 273.766,565.409 C 275.984,562.529 276.604,561.004 275.858,560.258 C 274.340,558.740 278.473,557.595 280.730,558.909 C 282.208,559.770 282.240,559.945 280.923,559.970 C 280.056,559.987 277.454,562.613 275.140,565.807 C 271.173,571.283 270.595,571.684 264.988,572.842 C 255.849,574.730 247.095,577.755 241.280,581.037 C 238.376,582.676 236,583.654 236,583.211" stroke="#75D975" fill="#75D975" stroke-width="1" />
  <path id="57" d="M 263.407,597 C 264.685,589.230 278.033,566.362 284.345,561.128 C 286.960,558.959 286.271,561.398 283.544,563.959 C 278.050,569.121 265.029,591.580 264.985,595.972 C 264.977,596.813 264.488,598.175 263.900,599 C 263.092,600.134 262.972,599.645 263.407,597" stroke="#75D975" fill="#75D975" stroke-width="1" />
  </g><g id="dragon 1"><path id="51" d="M 768.500,574.439 C 764.650,573.148 759.925,571.847 758,571.546 C 755.179,571.105 753.825,570.007 751.016,565.885 C 749.100,563.073 746.400,560.294 744.823,558.242 C 746.100,558.022 747.900,558.189 748.823,558.614 C 749.745,559.039 750.950,559.428 751.500,559.480 C 752.050,559.532 753.734,560.395 755.242,561.397 C 756.750,562.400 758.624,562.974 759.407,562.674 C 762.555,561.466 776.860,572.119 776.964,575.750 C 777.008,577.297 777.036,577.301 768.500,574.439" stroke="#60BF62" fill="#60BF62" stroke-width="1" />
  <path id="51" d="M 735.142,616.243 C 733.295,611.434 729.483,603.450 726.672,598.500 C 722.360,590.906 719.872,586.879 711.765,574.366 C 710.547,572.486 714.517,568.516 722.218,563.915 C 728.386,560.230 730.333,559.559 734.943,559.532 C 739.922,559.503 740.440,559.713 743.603,564.833 C 743.303,565.318 745.061,568.701 747.509,572.351 C 749.957,576.001 753.133,581.303 754.567,584.132 C 758.105,591.113 762.092,603.595 761.379,605.454 C 761.059,606.287 758.435,608.321 755.546,609.974 C 750.356,612.944 741,621.937 741,623.957 C 741,624.531 740.438,624.997 739.750,624.993 C 739.062,624.989 736.989,621.052 735.142,616.243" stroke="#60BF62" fill="#60BF62" stroke-width="1" />
  <path id="51" d="M 808.914,629.183 C 807.086,623.940 792.939,613.867 779.805,608.457 C 775.237,606.576 770.713,605.028 769.750,605.018 C 768.547,605.005 768,604.205 768,602.456 C 768,601.057 766.391,595.616 764.424,590.365 C 762.457,585.114 761.123,580.544 761.458,580.209 C 762.635,579.032 775.470,583.192 783.351,587.305 C 792.610,592.137 795.749,595.785 802.451,609.500 C 806.438,617.659 811.473,632 810.351,632 C 810.101,632 809.454,630.732 808.914,629.183" stroke="#60BF62" fill="#60BF62" stroke-width="1" />
  <path id="51" d="M 741.687,647.354 C 740.512,646.179 742.165,634.606 744,631.165 C 746.552,626.380 747.358,625.477 754.636,619.250 C 760.387,614.329 763.280,612.986 764.328,614.750 C 764.573,615.162 765.096,619.213 765.491,623.750 C 766.030,629.951 765.906,632 764.993,632 C 762.820,632 747.200,641.974 744.677,644.972 C 743.327,646.576 741.981,647.648 741.687,647.354" stroke="#60BF62" fill="#60BF62" stroke-width="1" />
  <path id="51" d="M 641.263,858.681 C 640.629,857.482 639.427,855.092 638.592,853.370 C 637.757,851.648 635.657,849.048 633.927,847.592 C 631.030,845.154 630.832,844.603 631.428,840.629 C 632.002,836.801 631.679,835.725 628.574,831.111 C 626.648,828.250 624.772,824.305 624.405,822.347 C 622.950,814.590 625.424,804.034 630.172,797.739 C 631.308,796.233 631.504,797.318 631.528,805.239 C 631.553,813.567 631.850,815.037 634.482,819.833 C 637.532,825.391 642.118,830 644.598,830 C 645.393,830 646.531,828.763 647.128,827.250 C 649.094,822.269 649.657,821.514 652.406,820.165 C 656.497,818.158 656.538,816.472 652.593,812.527 C 646.397,806.331 644.521,801.632 644.525,792.324 C 644.528,784.723 644.814,783.599 648.585,776.324 C 650.816,772.021 652.958,768.725 653.345,769 C 653.732,769.275 654.202,773.775 654.388,779 C 654.851,791.997 659.813,805.638 662.921,802.457 C 663.435,801.931 665.484,795.936 667.473,789.134 C 672.723,771.178 678.472,760.470 688.347,750.258 C 695.166,743.206 693.928,742.030 683.405,745.565 C 671.464,749.576 662.406,749.871 652.500,746.570 C 648.100,745.104 641.870,742.296 638.655,740.332 C 633.765,737.344 632.606,736.984 631.557,738.130 C 629.944,739.893 627.984,753.427 627.993,762.750 C 627.997,766.837 627.571,770 627.017,770 C 625.444,770 617.361,752.240 614.957,743.500 C 610.962,728.978 610.595,728.684 605.500,735.917 C 602.623,740.001 602.504,740.594 602.589,750.338 C 602.657,758.103 603.187,761.895 604.841,766.414 C 606.031,769.667 606.835,772.499 606.626,772.708 C 605.713,773.621 597.899,763.351 595.208,757.701 C 590.722,748.284 589.699,744.249 589.781,736.304 C 589.889,725.836 587.585,725.546 581.999,735.326 C 581.999,735.326 579.186,740.251 579.186,740.251 C 579.186,740.251 578.488,733.730 578.488,733.730 C 576.829,718.239 583.850,706.041 597.250,701.134 C 597.250,701.134 603,699.028 603,699.028 C 603,699.028 603,702.314 603,702.314 C 603,706.043 604.498,708 607.353,708 C 608.495,708 613.290,703.981 618.903,698.319 C 633.807,683.284 640.514,678.800 658.925,671.562 C 671.512,666.614 677.024,663.753 686.212,657.402 C 694.303,651.809 694.285,651.802 690.832,659.500 C 690.092,661.150 688.181,664.430 686.584,666.790 C 684.684,669.598 684.020,671.420 684.663,672.063 C 686.314,673.714 697.838,669.480 706.500,664.040 C 716.115,658.002 721.727,652.766 727.168,644.753 C 732.387,637.068 733.174,638.141 732.792,652.415 C 732.606,659.372 732.879,663.457 733.545,663.680 C 734.120,663.872 737.878,660.406 741.896,655.978 C 747.026,650.324 751.033,646.973 755.351,644.723 C 765.180,639.602 767.222,639.012 769.187,640.725 C 773.178,644.206 773.951,638.141 771.616,621.661 C 771.616,621.661 770.363,612.823 770.363,612.823 C 770.363,612.823 773.386,613.427 773.386,613.427 C 775.049,613.760 780.206,615.788 784.847,617.935 C 794.528,622.414 803.892,630.533 808.566,638.500 C 811.319,643.192 811.497,644.147 811.453,654 C 811.411,663.447 811.079,665.324 808.146,672.709 C 800.701,691.456 787.623,706.417 771.856,714.221 C 762.552,718.826 751.388,722 744.497,722 C 744.497,722 740.889,722 740.889,722 C 740.889,722 747.601,715.288 747.601,715.288 C 753.777,709.112 760,700.813 760,698.753 C 760,697.238 753.656,695.295 748.024,695.085 C 745.012,694.973 742.407,694.740 742.236,694.569 C 741.525,693.858 744.695,688.077 749.194,681.878 C 756.675,671.570 755.812,670.621 743.513,675.635 C 738.688,677.602 729.736,680.431 723.620,681.921 C 715.884,683.805 712.500,685.067 717,688.282 C 718.813,688.993 727.327,690.974 731.570,691.672 C 731.570,691.672 734.640,692.177 734.640,692.177 C 734.640,692.177 729.167,697.436 729.167,697.436 C 726.022,700.458 723.990,703.174 724.389,703.820 C 724.837,704.544 728.635,704.903 735.064,704.828 C 740.553,704.764 745.249,704.916 745.499,705.166 C 746.497,706.164 734.561,719.173 730.421,721.599 C 725.366,724.562 725.084,725.355 728.336,727.485 C 731.143,729.324 746.898,732.932 752.500,733.018 C 752.500,733.018 756.500,733.080 756.500,733.080 C 756.500,733.080 753.778,734.557 753.778,734.557 C 750.385,736.398 732.581,748.572 728.009,752.176 C 728.009,752.176 724.615,754.852 724.615,754.852 C 724.615,754.852 729.735,759.676 729.735,759.676 C 735.012,764.648 737.043,769.117 735.293,771.905 C 734.536,773.112 732.003,773.627 724.896,774.024 C 712.700,774.705 706.331,777.563 697.064,786.509 C 685.230,797.934 672.031,818.785 670.485,828.500 C 668.733,839.508 663.487,845.364 652.110,849.007 C 647.672,850.428 644.012,854.575 644.004,858.191 C 643.998,860.826 642.534,861.088 641.263,858.681M 666.672,710.351 C 668.723,709.378 672.336,706.728 674.701,704.462 C 685.339,694.269 675.683,693.392 653.930,702.574 C 647.920,705.111 642.738,707.614 642.415,708.137 C 641.512,709.598 643.844,711.828 646.823,712.352 C 651.861,713.239 662.940,712.122 666.672,710.351" stroke="#60BF62" fill="#60BF62" stroke-width="1" />
  <path id="57" d="M 761.455,605.073 C 762.221,603.834 757.846,590.605 754.466,583.934 C 752.977,580.996 749.339,575.057 746.380,570.737 C 741.070,562.984 739.163,559.140 743.037,564 C 751.480,574.592 757.663,585.841 761.502,597.603 C 764.457,606.655 764.384,606 762.441,606 C 761.584,606 761.140,605.583 761.455,605.073" stroke="#75D975" fill="#75D975" stroke-width="1" />
  <path id="57" d="M 765.207,596.641 C 763.946,592.714 761.593,586.800 759.979,583.500 C 758.365,580.200 757.034,577.399 757.022,577.275 C 756.970,576.755 764.018,578.434 771,580.604 C 775.125,581.886 780.975,584.513 784,586.442 C 791.035,590.928 789.889,590.994 781.784,586.570 C 775.439,583.107 762.584,579.083 761.458,580.209 C 761.123,580.544 762.483,585.181 764.480,590.514 C 766.477,595.847 767.974,601.014 767.806,601.996 C 767.638,602.978 766.468,600.568 765.207,596.641" stroke="#75D975" fill="#75D975" stroke-width="1" />
  <path id="57" d="M 784.079,582.595 C 782.377,580.544 768.577,575.250 760.694,573.624 C 756.951,572.852 753.759,572.058 753.602,571.860 C 749.543,566.734 745.174,560 745.908,560 C 746.442,560 748.595,562.470 750.690,565.489 C 753.781,569.941 755.161,571.084 758,571.542 C 761.240,572.064 771.177,574.938 775.250,576.530 C 777.529,577.421 777.549,575.323 775.286,572.579 C 774.343,571.436 776.593,573.412 780.286,576.971 C 783.979,580.530 787,583.568 787,583.721 C 787,584.547 785.087,583.809 784.079,582.595" stroke="#75D975" fill="#75D975" stroke-width="1" />
  </g><g id="heads 1"><path id="51" d="M 561.531,829.266 C 559.269,820.252 548.948,803.692 541.251,796.727 C 537.375,793.220 529.863,797.536 514.580,812.054 C 514.580,812.054 507.415,818.860 507.415,818.860 C 507.415,818.860 509.114,805.683 509.114,805.683 C 510.048,798.436 510.563,792.103 510.259,791.611 C 509.953,791.116 505.342,790.982 499.951,791.310 C 488.249,792.023 480.814,794.715 471.768,801.515 C 459.759,810.543 445.919,817.660 436.072,819.872 C 430.932,821.027 430.927,820.521 435.977,811.257 C 443.943,796.644 454.597,785.725 467,779.466 C 478.190,773.819 492.503,771.666 502.909,774.065 C 510.519,775.819 510.506,775.595 501.705,752 C 500.371,748.425 498.967,744.193 500.693,741.496 C 505.382,744.505 521.341,756.621 523.929,759.138 C 525.265,760.437 527.350,762.175 528.561,763 C 532.146,765.442 555.915,786.038 562.134,792.091 C 562.134,792.091 567.878,797.682 567.878,797.682 C 567.878,797.682 562.785,796.877 562.785,796.877 C 559.984,796.434 557.311,796.307 556.846,796.595 C 555.608,797.360 555.823,800.136 557.346,803.055 C 560.240,808.600 562.120,815.877 562.695,823.750 C 563.300,832.035 562.809,834.359 561.531,829.266" stroke="#60BF62" fill="#60BF62" stroke-width="1" />
  <path id="51" d="M 583.136,868.320 C 583.061,867.671 579.380,863.592 574.954,859.255 C 574.954,859.255 566.907,851.368 566.907,851.368 C 566.907,851.368 567.929,846.934 567.929,846.934 C 568.491,844.495 568.972,840.925 568.998,839 C 569.044,835.542 569.065,835.525 570.772,837.591 C 573.096,840.403 579.513,844.154 583,846.637 C 584.812,847.579 585.415,848.608 585.191,850.373 C 585.021,851.713 585.359,853.104 585.943,853.465 C 587.070,854.161 586.329,861.716 584.959,863.500 C 584.537,864.050 583.985,865.625 583.732,867 C 583.479,868.375 583.211,868.969 583.136,868.320" stroke="#60BF62" fill="#60BF62" stroke-width="1" />
  <path id="51" d="M 583.422,841.521 C 582.529,840.158 579.593,837.459 576.899,835.523 C 572.868,832.627 572,831.462 570.754,824.509 C 571.370,821.286 569.190,812.402 567.423,810.936 C 565.776,809.569 566.453,808 568.688,808 C 570.477,808 578.634,815.040 578.243,816.247 C 578.102,816.683 579.114,819.266 580.493,821.987 C 581.872,824.708 583,827.637 585.345,832.544 C 585.054,833.302 585.522,835.340 586.385,837.070 C 587.527,839.358 587.678,840.732 586.942,842.108 C 585.639,844.542 585.372,844.498 583.422,841.521" stroke="#60BF62" fill="#60BF62" stroke-width="1" />
  <path id="51" d="M 539.269,907.847 C 541.026,904.347 541.499,901.468 541.693,893.075 C 541.693,893.075 541.934,882.650 541.934,882.650 C 541.934,882.650 547.217,878.737 547.217,878.737 C 550.123,876.585 553.250,873.960 554.167,872.904 C 555.773,871.054 555.893,871.162 557.437,875.812 C 559.586,882.282 559.540,891.191 557.320,898.500 C 555.533,904.383 555.370,904.563 548.998,907.714 C 545.424,909.482 541.283,911.213 539.794,911.561 C 539.794,911.561 537.087,912.195 537.087,912.195 C 537.087,912.195 539.269,907.847 539.269,907.847" stroke="#60BF62" fill="#60BF62" stroke-width="1" />
  <path id="51" d="M 561.546,897.324 C 561.888,895.771 562.351,893.910 562.576,893.189 C 563.172,891.277 560.044,872.668 558.939,871.550 C 557.278,869.869 557.921,867.632 561.600,862.290 C 561.600,862.290 565.201,857.062 565.201,857.062 C 565.201,857.062 568.919,858.958 568.919,858.958 C 573.407,861.248 579.712,868.004 580.577,871.450 C 582.090,877.477 573.917,891.209 565.282,897.150 C 565.282,897.150 560.925,900.148 560.925,900.148 C 560.925,900.148 561.546,897.324 561.546,897.324" stroke="#60BF62" fill="#60BF62" stroke-width="1" />
  <path id="51" d="M 506.677,916.132 C 506.677,916.132 503.854,915.500 503.854,915.500 C 503.854,915.500 507.016,912.500 507.016,912.500 C 511.623,908.129 514.681,902.347 516.121,895.278 C 516.121,895.278 517.388,889.057 517.388,889.057 C 517.388,889.057 522.944,887.909 522.944,887.909 C 529.834,886.485 534.002,885.421 536.163,884.535 C 538.844,883.435 539.751,895.223 537.506,901.983 C 535.350,908.473 529.782,914.425 524.500,915.884 C 520.253,917.057 511.365,917.181 506.677,916.132" stroke="#60BF62" fill="#60BF62" stroke-width="1" />
  <path id="51" d="M 455.500,900.587 C 449.207,896.419 443.951,891.277 441.177,886.576 C 439.186,883.202 439.155,882.885 440.762,882.366 C 449.883,879.418 456.063,875.733 463.750,868.657 C 466.087,866.506 468,865.235 468,865.833 C 468,867.442 476.793,876.078 482.250,879.830 C 484.862,881.626 487,883.459 487,883.903 C 487,884.347 484.334,887.619 481.076,891.175 C 475.526,897.232 465.233,904.075 461.860,903.949 C 461.112,903.921 458.250,902.408 455.500,900.587" stroke="#60BF62" fill="#60BF62" stroke-width="1" />
  <path id="51" d="M 478.500,911.512 C 473,909.603 468.388,908.032 468.250,908.021 C 466.939,907.912 468.695,906.080 471.620,904.505 C 476.126,902.078 488.597,889.845 489.516,886.950 C 490.014,885.380 490.773,884.939 492.348,885.309 C 501.177,887.380 510.643,888.967 511.715,888.556 C 514.724,887.401 511.312,900.232 506.909,906.632 C 500.555,915.867 494.196,916.959 478.500,911.512" stroke="#60BF62" fill="#60BF62" stroke-width="1" />
  <path id="51" d="M 434.633,877.838 C 431.175,872.551 428.673,865.159 428.226,858.914 C 428.226,858.914 427.752,852.297 427.752,852.297 C 427.752,852.297 431.682,851.769 431.682,851.769 C 437.370,851.006 445.582,846.827 452.750,841.047 C 452.750,841.047 459,836.008 459,836.008 C 459,836.008 459.029,838.754 459.029,838.754 C 459.045,840.264 459.955,844.650 461.052,848.500 C 464.930,862.112 465.029,861.401 458.358,867.888 C 452.817,873.276 444.899,877.983 438.798,879.514 C 436.713,880.037 435.842,879.687 434.633,877.838" stroke="#60BF62" fill="#60BF62" stroke-width="1" />
  <path id="51" d="M 428.472,839.844 C 429.424,825.864 428.944,826.727 437.217,824.118 C 441.223,822.855 448.186,820.061 452.691,817.910 C 457.196,815.759 461.494,814 464.664,814.244 C 463.728,815.753 462.243,819.794 461.364,823.224 C 460.485,826.654 458.581,830.896 457.133,832.651 C 452.034,838.830 441.264,845.852 434.500,847.406 C 432.850,847.785 430.676,848.341 429.668,848.641 C 427.953,849.152 427.876,848.591 428.472,839.844" stroke="#60BF62" fill="#60BF62" stroke-width="1" />
  <path id="57" d="M 569.339,800.939 C 568.755,800.355 565.628,799.025 562.389,797.984 C 557.354,796.366 557.080,796.165 560.500,796.603 C 567.594,797.511 568.923,797.988 570.006,800.012 C 571.186,802.218 570.949,802.549 569.339,800.939" stroke="#75D975" fill="#75D975" stroke-width="1" />
  <path id="57" d="M 580.952,845.442 C 580.241,844.585 577.711,842.743 575.330,841.347 C 572.949,839.951 571,838.374 571,837.841 C 571,836.891 582.620,844.577 583.613,846.183 C 584.527,847.662 582.273,847.034 580.952,845.442" stroke="#75D975" fill="#75D975" stroke-width="1" />
  <path id="57" d="M 583.552,829.500 C 583.178,828.400 581.754,825.084 580.388,822.131 C 579.022,819.178 578.143,816.524 578.435,816.232 C 579.249,815.418 585.240,828.800 584.704,830.236 C 584.405,831.038 583.984,830.770 583.552,829.500" stroke="#75D975" fill="#75D975" stroke-width="1" />
  <path id="57" d="M 577.250,837.416 C 574.362,835.466 571.994,833.787 571.986,833.685 C 571.978,833.583 570.954,828.473 569.709,822.329 C 568.464,816.185 567.740,811.340 568.100,811.562 C 569.014,812.127 570.715,819.408 571.546,826.309 C 572.218,831.897 572.451,832.270 577.623,836.091 C 582.192,839.466 583.868,841.065 582.750,840.981 C 582.612,840.971 580.138,839.366 577.250,837.416" stroke="#75D975" fill="#75D975" stroke-width="1" />
  <path id="57" d="M 573.437,810.932 C 571.544,808.955 569.773,808.003 568.456,808.254 C 566.871,808.556 566.037,807.765 564.740,804.728 C 562.854,800.311 562.587,800.218 570.370,806.683 C 573.837,809.563 577.702,814 576.744,814 C 576.541,814 575.052,812.619 573.437,810.932" stroke="#75D975" fill="#75D975" stroke-width="1" />
  </g></svg>