<svg xmlns="http://www.w3.org/2000/svg" width="1024" height="1024" viewBox="0 0 1024 1024"><g id="others"><path id="10" d="M 806.232,633 C 807.579,630.842 809.506,630.392 810.501,632.002 C 810.842,632.553 809.939,633.453 808.495,634.002 C 804.932,635.357 804.798,635.297 806.232,633" stroke="#60A437" fill="#60A437" stroke-width="1" />
  </g><g id="dragon"><path id="9" d="M 295.536,713.268 C 294.141,711.215 293,708.345 293,706.890 C 293,705.435 292.325,703.685 291.500,703 C 289.328,701.197 287.247,703.245 283.878,710.500 C 283.878,710.500 281.092,716.500 281.092,716.500 C 281.092,716.500 281.046,710.462 281.046,710.462 C 280.975,701.085 283.836,696.329 292,692.259 C 295.575,690.477 300.205,688.542 302.289,687.960 C 311.232,685.462 314.999,677.628 310.194,671.519 C 307.294,667.833 307.421,667.261 311.019,667.789 C 314.895,668.358 317.630,671.890 319.629,678.908 C 320.505,681.984 321.615,684.922 322.097,685.437 C 323.808,687.266 328.039,681.683 330.110,674.863 C 331.989,668.677 332.589,667.837 337.599,664.387 C 340.594,662.324 342.886,660.156 342.691,659.568 C 342.094,657.770 318.949,657.730 308.638,659.509 C 298.810,661.205 295,662.985 295,665.882 C 295,666.892 296.354,670.257 298.010,673.359 C 300.410,677.857 300.703,679 299.457,679 C 296.815,679 290.845,674.330 287.046,669.292 C 283.215,664.212 279.903,662.912 276.049,664.974 C 273.700,666.231 273.320,671.013 275.069,677.310 C 276.532,682.579 275.919,683.512 272.673,680.958 C 266.236,675.895 258.128,662.377 255.463,652.267 C 252.485,640.968 256.031,634.704 266.357,633.023 C 278.101,631.112 288.515,622.809 295.419,609.854 C 299.852,601.535 307.527,589.410 308.896,588.564 C 310.061,587.844 312,593.366 312,597.406 C 312,599.115 311.555,602.067 311.010,603.966 C 310.413,606.047 310.382,607.782 310.932,608.332 C 311.482,608.882 318.413,603.840 328.376,595.646 C 348.416,579.163 366.028,565.695 366.683,566.350 C 368.102,567.769 365.341,579.101 361.916,585.915 C 359.595,590.532 358.463,593.860 359.023,594.421 C 359.583,594.982 362.981,593.922 367.721,591.705 C 379.301,586.290 412.317,574.652 423.612,572.003 C 423.612,572.003 426.725,571.273 426.725,571.273 C 426.725,571.273 422.816,577.157 422.816,577.157 C 416.834,586.164 419.305,587.562 429.305,580.829 C 437.347,575.415 450.495,562.226 456,554.053 C 464.004,542.168 466.424,532.156 464.833,517.500 C 464.296,512.550 463.457,508.091 462.970,507.592 C 461.230,505.809 459.279,509.063 458.673,514.755 C 456.347,536.614 440.928,553.530 417.031,560.441 C 417.031,560.441 411.562,562.022 411.562,562.022 C 411.562,562.022 415.676,557.761 415.676,557.761 C 420.513,552.752 424.603,545.203 423.226,543.826 C 422.644,543.244 419.068,544.224 413.784,546.411 C 402.077,551.257 386.847,555.520 372,558.105 C 360.857,560.045 355.375,560.307 321.500,560.513 C 281.740,560.755 274.320,561.343 258.344,565.513 C 230.504,572.780 212.444,585.136 207.373,600.387 C 204.378,609.394 207.546,621.858 214.984,630.329 C 216.789,632.385 217.982,634.351 217.635,634.698 C 216.760,635.573 201.516,627.781 195.785,623.529 C 189.408,618.798 180.537,607.868 176.885,600.240 C 171.008,587.965 169.687,572.743 173.529,561.591 C 174.877,557.678 174.716,556 172.994,556 C 171.781,556 165.555,565.521 163.175,571.015 C 163.175,571.015 161.232,575.500 161.232,575.500 C 161.232,575.500 160.482,572.646 160.482,572.646 C 160.069,571.076 159.963,566.126 160.247,561.646 C 161.383,543.707 170.801,530.237 187.750,522.309 C 190.813,520.876 193,519.199 193,518.282 C 193,516.950 191.895,516.791 185.750,517.234 C 181.762,517.522 177.600,517.429 176.500,517.027 C 174.768,516.395 175.238,515.826 180,512.784 C 197.647,501.512 219.689,494.225 243,491.957 C 249.325,491.342 254.855,490.496 255.290,490.078 C 255.725,489.660 254.150,488.064 251.790,486.531 C 244.527,481.811 237,475.810 237,474.737 C 237,473.438 257.689,474.547 271.422,476.583 C 286.193,478.773 294.541,480.646 307.143,484.600 C 317.089,487.721 322.535,489.791 339.250,496.810 C 342.940,498.359 344.201,499.980 341.750,500.022 C 336.499,500.113 311.568,504.032 310.697,504.903 C 308.699,506.901 311.273,507.711 325.274,509.493 C 341.572,511.567 364.188,511.127 376,508.504 C 390.280,505.333 404.006,498.030 414.254,488.150 C 414.254,488.150 419.008,483.567 419.008,483.567 C 419.008,483.567 420.705,486.033 420.705,486.033 C 422.736,488.986 431.175,496.974 432.281,496.989 C 434.220,497.015 433.835,493.909 431.162,487.953 C 429.569,484.404 427.992,479.925 427.658,478 C 427.021,474.332 428.211,467.389 429.738,465.862 C 430.262,465.338 432.982,466.652 436.324,469.045 C 443.914,474.480 444.991,472.426 439.017,463.909 C 435.603,459.042 434.888,457.276 435.285,454.694 C 438.515,433.667 438.651,412.369 435.636,399.750 C 433.941,392.655 434.462,392.517 444.593,397.372 C 444.593,397.372 451.629,400.744 451.629,400.744 C 451.629,400.744 458.950,426.622 458.950,426.622 C 462.977,440.855 468.251,459.025 470.669,467 C 481.187,501.685 484.199,516.396 484.284,533.500 C 484.375,551.826 481.237,564.581 473.462,577.493 C 469.035,584.845 469.393,586.182 475.566,585.336 C 475.566,585.336 480.207,584.700 480.207,584.700 C 480.207,584.700 478.604,587.798 478.604,587.798 C 476.014,592.806 468.537,597.683 458.534,600.887 C 453.078,602.635 451.735,605.260 456,605.840 C 463.267,606.828 479.794,616.898 487.500,625.035 C 487.500,625.035 491.500,629.258 491.500,629.258 C 491.500,629.258 488.525,628.554 488.525,628.554 C 471.880,624.611 467.670,625.857 477.068,631.947 C 487.243,638.540 495.094,651.745 497.652,666.570 C 498.470,671.313 498.873,675.460 498.547,675.786 C 498.221,676.112 497.195,675.295 496.266,673.969 C 492.873,669.125 489.300,665.696 488.294,666.318 C 487.727,666.669 486.958,670.044 486.586,673.819 C 484.446,695.533 465.143,711.473 436.800,714.927 C 436.800,714.927 431.099,715.621 431.099,715.621 C 431.099,715.621 439.905,707.061 439.905,707.061 C 449.728,697.512 453.338,691.337 454.849,681.500 C 458.167,659.894 445.903,643.913 422.868,639.827 C 411.604,637.829 382.500,642.957 382.500,646.940 C 382.500,647.762 384.861,649.290 388,650.499 C 391.025,651.664 394.400,652.971 395.500,653.403 C 397.044,654.009 394.992,655.025 386.500,657.859 C 374.649,661.814 359.137,669.624 349.500,676.486 C 343.132,681.021 333,691.144 333,692.972 C 333,693.573 333.675,695.680 334.500,697.654 C 335.325,699.628 336,701.639 336,702.122 C 336,705.207 321.212,699.050 317.369,694.364 C 315.414,691.980 314.957,691.859 311.834,692.890 C 309.962,693.508 306.275,695.923 303.640,698.257 C 299.735,701.716 298.748,703.273 298.302,706.680 C 298.001,708.979 298.237,712.241 298.826,713.930 C 300.294,718.141 298.618,717.804 295.536,713.268M 280.736,651.382 C 283.628,649.559 286.354,645.383 285.527,644.044 C 283.845,641.322 278.248,643.438 274.976,648.033 C 271.062,653.530 274.322,655.426 280.736,651.382M 335.082,642.096 C 338.702,640.956 343.528,638.771 345.807,637.241 C 351.646,633.319 365.169,619.993 364.690,618.633 C 364.151,617.103 359.738,617.670 352.500,620.200 C 341.383,624.085 338.208,625.768 337.458,628.175 C 336.282,631.947 331.279,637.639 327.609,639.381 C 325.733,640.271 322.241,640.985 319.849,640.968 C 319.849,640.968 315.500,640.937 315.500,640.937 C 315.500,640.937 318.019,638.718 318.019,638.718 C 319.404,637.498 322.052,635.316 323.902,633.870 C 325.849,632.349 326.970,630.761 326.563,630.103 C 325.727,628.751 314.223,634.499 308.944,638.906 C 305.873,641.470 305.685,641.915 307.003,643.504 C 308.279,645.042 309.724,645.195 318.482,644.716 C 324.359,644.395 331.221,643.312 335.082,642.096M 206.256,568.614 C 218.540,556.330 241.095,549.486 273.250,548.288 C 287.782,547.746 292.354,546.810 286.750,545.521 C 280.730,544.137 259.984,542.002 252.699,542.017 C 231.683,542.062 213.032,550.877 203.014,565.500 C 199.838,570.137 198.407,574 199.867,574 C 200.418,574 203.294,571.576 206.256,568.614" stroke="#61A539" fill="#61A539" stroke-width="1" />
  <path id="9" d="M 636.500,489.116 C 629.625,485.138 618.804,474.993 613.581,467.628 C 602.748,452.351 597.999,437.110 598.001,417.622 C 598.002,410.756 598.660,402.248 599.519,398 C 600.353,393.875 601.312,389.038 608.512,386.990 C 610.005,385.751 610.167,384.400 609.646,377.522 C 609.312,373.110 608.769,368.348 608.439,366.940 C 607.889,364.593 608.407,364.098 614.670,360.977 C 621.835,357.406 636.503,344.009 635.743,341.729 C 635.212,340.137 631.550,339.220 625.250,339.100 C 622.362,339.045 620,338.564 620,338.030 C 620,337.496 621.393,336.034 623.096,334.780 C 633.796,326.901 648.703,296.318 643.819,292.264 C 643.052,291.627 639.592,290.970 636.130,290.803 C 636.130,290.803 629.836,290.500 629.836,290.500 C 629.836,290.500 634.958,283.742 634.958,283.742 C 640.214,276.807 646.923,270.887 654.684,266.339 C 657.105,264.920 658.918,263.251 658.713,262.630 C 658.486,261.943 654.563,261.304 648.702,261 C 641.920,260.648 639.277,260.168 639.782,259.379 C 641.756,256.298 666.768,242.936 678,238.962 C 689.532,234.882 689.406,234.196 676.242,229.399 C 667.841,226.338 667.609,226.171 670.270,225.124 C 676.270,222.764 687.026,220.878 697.787,220.298 C 703.995,219.964 709.334,219.268 709.653,218.753 C 709.972,218.238 708.492,216.402 706.366,214.675 C 699.937,209.453 692,201.769 692,200.767 C 692,197.248 725.625,207.615 744.698,217.015 C 750.089,219.672 754.851,221.507 755.281,221.092 C 755.711,220.677 754.488,216.999 752.563,212.919 C 749.162,205.708 746,195.495 746,191.717 C 746,190.609 746.587,189.985 747.446,190.177 C 748.241,190.355 757.129,197.958 767.196,207.074 C 797.456,234.474 802.061,238.339 803.150,237.250 C 803.812,236.588 803.775,233.440 803.041,227.877 C 802.433,223.270 801.725,217.839 801.466,215.810 C 801.208,213.781 801.408,211.866 801.911,211.555 C 803.348,210.667 812.618,221.822 816.409,229 C 818.297,232.575 821.228,239.302 822.923,243.948 C 826.589,253.998 828.791,256.490 839.996,263.267 C 847.411,267.752 849.252,268.436 854.381,268.614 C 862.612,268.900 864.528,270.934 864.420,279.280 C 864.281,290.052 857.751,303.388 846.565,315.750 C 840.165,322.823 838.540,322.659 841.588,315.250 C 846.205,304.024 845.751,300 839.863,300 C 837.661,300 836.512,300.775 835.050,303.250 C 829.592,312.486 823.421,318 818.540,318 C 816.467,318 816.587,317.411 819.417,313.683 C 820.746,311.932 822.597,308.583 823.530,306.239 C 824.927,302.730 824.998,301.703 823.936,300.423 C 819.823,295.468 804.411,291.737 787.500,291.603 C 772.686,291.486 771.682,292.144 779.301,296.976 C 782.899,299.258 784.713,301.333 786.541,305.260 C 787.883,308.142 788.985,311.070 788.990,311.768 C 789.003,313.425 793.932,322.840 795.196,323.621 C 796.943,324.700 798.093,322.412 798.989,316.076 C 799.820,310.199 803.655,303 805.956,303 C 806.426,303 806.573,305.616 806.283,308.814 C 805.359,319.005 809.754,324.121 823.215,328.520 C 837.712,333.258 843.206,337.875 845.904,347.591 C 848.179,355.784 847.323,355.856 840.197,348.068 C 832.560,339.722 830.479,339.338 831.549,346.476 C 832.029,349.679 831.757,351.441 830.482,353.388 C 828.314,356.696 827,356.719 827,353.450 C 827,347.942 820.350,339.357 811.864,333.912 C 811.864,333.912 806.833,330.684 806.833,330.684 C 806.833,330.684 803.166,334.694 803.166,334.694 C 799.426,338.785 793.783,342.167 788.620,343.410 C 785.956,344.052 785.795,343.931 786.483,341.802 C 786.892,340.536 787.444,337.859 787.709,335.853 C 788.159,332.446 787.711,331.701 780.895,324.526 C 773.262,316.490 757.884,305.463 746.110,299.582 C 739.508,296.284 730.051,292.956 722.500,291.272 C 722.500,291.272 718.500,290.380 718.500,290.380 C 718.500,290.380 724.500,288.185 724.500,288.185 C 736.638,283.746 736.172,282.453 722.500,282.631 C 710.402,282.789 703.013,285.180 692.185,292.445 C 674.217,304.500 661.173,323.646 647.523,358 C 639.857,377.293 640.269,376.605 629.723,387.768 C 618.534,399.611 613.947,406.350 609.948,416.821 C 604.607,430.807 605.930,434.735 612.711,425.029 C 619.869,414.783 633.984,406.382 651.421,401.987 C 656.965,400.590 661.500,399.008 661.500,398.473 C 661.500,395.865 646.355,395.952 638.750,398.604 C 636.688,399.323 635,399.565 635,399.142 C 635,398.719 638.598,395.252 642.996,391.437 C 652.526,383.170 662.823,377.360 676.750,372.392 C 682.388,370.381 687,368.283 687,367.730 C 687,366.341 675.411,367.610 665.833,370.048 C 661.616,371.122 657.816,372 657.387,372 C 655.919,372 663.496,364.796 671.500,358.581 C 687.420,346.219 702.287,338.546 720.151,333.470 C 727.302,331.438 732.631,330.687 742.817,330.274 C 750.923,329.945 756.518,330.118 757.113,330.713 C 757.751,331.351 756.190,333.126 752.630,335.814 C 739.498,345.728 715.513,370.947 702.573,388.444 C 679.557,419.566 660.556,452.270 648.590,481.354 C 646.280,486.970 643.769,491.605 642.960,491.749 C 642.157,491.892 639.250,490.707 636.500,489.116M 843.732,286.306 C 843.951,285.649 842.631,283.477 840.800,281.479 C 838.311,278.763 836.590,277.802 833.985,277.673 C 828.709,277.411 829.341,280.503 835.419,284.692 C 840.314,288.065 842.974,288.582 843.732,286.306M 808.018,274.478 C 809.080,273.199 808.661,272.398 805.391,269.468 C 799.224,263.941 793.077,260.523 791.730,261.870 C 790.879,262.721 791.653,264.090 794.796,267.292 C 797.108,269.648 799,271.896 799,272.288 C 799,274.757 787.668,271.003 783.673,267.211 C 780.588,264.282 777,258.017 777,255.557 C 777,253.680 769.880,250.011 760.248,246.927 C 754.353,245.039 752.762,244.846 751.748,245.890 C 749.971,247.720 768.486,265.382 776.862,269.846 C 787.053,275.278 805.125,277.964 808.018,274.478" stroke="#61A539" fill="#61A539" stroke-width="1" />
  <path id="9" d="M 378.606,489.750 C 377.814,488.513 375.615,483.450 373.718,478.500 C 363.946,452.997 341.563,415.352 318.421,385.500 C 306.500,370.123 280.719,343.595 272,337.735 C 265.063,333.073 263,331.446 263,330.640 C 263,329.372 286.678,330.034 294.500,331.520 C 316.360,335.674 339.545,347.929 358.509,365.355 C 362.354,368.888 365.245,372.047 364.934,372.373 C 364.623,372.699 362.823,372.501 360.934,371.932 C 353.992,369.842 340.598,367.131 339.763,367.647 C 338.212,368.605 341.153,370.964 345.287,372.077 C 354.548,374.571 374.282,385.875 384.905,394.771 C 384.905,394.771 388.309,397.622 388.309,397.622 C 388.309,397.622 377.905,397.561 377.905,397.561 C 369.486,397.512 367.500,397.774 367.500,398.940 C 367.500,399.816 369.655,401.039 373,402.059 C 391.246,407.625 403.538,415.811 412.700,428.500 C 415.674,432.619 417.230,430.972 415.911,425.101 C 413.311,413.528 407.678,404.814 389.945,384.926 C 384.975,379.352 381.676,374.628 380.517,371.426 C 367.131,334.441 358.493,318.575 343.500,303.429 C 335.298,295.144 332.023,292.592 325.287,289.240 C 315.770,284.504 304.696,281.750 296.937,282.191 C 289.539,282.611 289.619,284.823 297.114,287.048 C 306.050,289.701 305.966,290.086 295.893,292.632 C 276.114,297.632 251.428,312.975 239.822,327.484 C 235.724,332.606 235.320,335.056 237.481,341.665 C 238.163,343.752 238.032,343.795 233.844,342.858 C 228.114,341.576 221.755,337.779 218.595,333.751 C 216.403,330.957 215.796,330.673 214.272,331.737 C 213.297,332.418 211.150,333.705 209.500,334.599 C 202.347,338.473 196.882,345.778 195.458,353.371 C 194.531,358.310 192.986,356.803 191.894,349.894 C 190.311,339.881 187.588,340.819 178.211,354.605 C 177.103,356.234 176.990,355.773 177.406,351.318 C 178.010,344.844 180.998,338.867 185.249,335.624 C 188.325,333.278 198.895,329.048 205.451,327.540 C 207.074,327.167 210.396,324.868 212.833,322.431 C 212.833,322.431 217.263,318 217.263,318 C 217.263,318 216.782,310.500 216.782,310.500 C 216.517,306.375 216.604,303 216.976,303 C 219.029,303 222.222,308.519 223.828,314.842 C 224.836,318.812 226.220,322.610 226.902,323.281 C 228.854,325.200 231.516,321.111 234.707,311.288 C 237.217,303.563 238.033,302.229 242.750,298.154 C 245.637,295.659 248,293.029 248,292.309 C 248,290.426 229.504,290.578 218.860,292.547 C 203.500,295.389 200,297.180 200,302.195 C 200,305.197 203.105,312.217 205.777,315.256 C 207.693,317.435 206.842,318.428 203.727,317.646 C 200.288,316.783 194.352,310.629 191.468,304.937 C 189.241,300.541 188.609,300 185.706,300 C 182.122,300 178,302.367 178,304.426 C 178,305.148 179.085,309.059 180.410,313.119 C 181.735,317.178 182.618,320.705 182.371,320.956 C 182.124,321.207 178.902,318.268 175.211,314.426 C 161.733,300.395 154.518,279.512 160.379,271.497 C 161.354,270.163 163.674,269.439 168.686,268.903 C 173.750,268.362 177.075,267.314 180.919,265.048 C 193.452,257.658 197.583,252.469 202.877,237.469 C 205.827,229.112 211.931,218.657 217.085,213.135 C 219.100,210.976 219.376,210.919 220.252,212.485 C 221.135,214.063 220.819,220.799 219.347,231.738 C 218.900,235.059 219.123,236.110 220.377,236.591 C 222.491,237.402 223.515,236.548 270.816,194.568 C 276.916,189.154 277.529,188.832 277.828,190.882 C 278.261,193.847 274.614,205.700 270.928,213.309 C 269.024,217.239 268.328,219.728 268.956,220.356 C 269.584,220.984 273.745,219.536 280.736,216.257 C 286.681,213.468 296.036,209.627 301.523,207.719 C 312.705,203.832 330.750,199.417 331.675,200.342 C 332.007,200.674 328.351,204.760 323.550,209.423 C 318.749,214.086 315.070,218.304 315.375,218.797 C 315.680,219.290 320.332,219.966 325.714,220.299 C 340.217,221.196 359.487,225.773 355,227.255 C 354.175,227.528 349.998,228.790 345.718,230.061 C 337.852,232.397 334.905,234.311 336.592,235.986 C 337.091,236.482 341.550,238.314 346.500,240.057 C 351.450,241.800 357.750,244.352 360.500,245.728 C 368.185,249.572 382.974,258.418 382.988,259.178 C 383.006,260.192 372.371,261.324 369.057,260.661 C 367.139,260.277 365.758,260.587 364.930,261.585 C 363.418,263.406 363.601,263.603 372.482,269.717 C 378.449,273.825 391.987,288.038 391.997,290.204 C 391.999,290.591 388.962,291.041 385.250,291.204 C 385.250,291.204 378.500,291.500 378.500,291.500 C 378.500,291.500 378.720,295.247 378.720,295.247 C 379.243,304.166 389.084,322.306 398.774,332.212 C 404.907,338.481 404.985,338.300 395.574,339.650 C 392.230,340.130 389.463,341.069 389.222,341.806 C 388.577,343.781 404.815,359.253 410.333,361.921 C 414.355,363.866 415.069,364.614 414.590,366.379 C 412.504,374.069 411.841,379.810 412.675,382.932 C 413.858,387.358 415.494,387.840 420.008,384.500 C 422.569,391.076 424.119,401.189 424.681,415 C 425.201,427.767 425.014,430.516 423.124,438 C 419.027,454.220 410.633,468.502 398.556,479.799 C 392.769,485.213 382.923,491.963 380.773,491.991 C 380.373,491.996 379.398,490.987 378.606,489.750M 186.456,286.454 C 190.775,284.404 195.421,279.490 194.480,277.967 C 193.041,275.638 185.951,277.582 182.198,281.335 C 176.720,286.813 179.262,289.868 186.456,286.454M 239.233,273.110 C 242.386,272.015 247.111,269.668 249.733,267.895 C 255.824,263.775 270.229,249.164 269.691,247.651 C 269.074,245.918 264.420,246.620 257.081,249.553 C 248.883,252.829 248.177,253.420 245.796,258.986 C 244.734,261.469 242.883,264.556 241.683,265.847 C 238.790,268.958 232.727,272 229.419,272 C 229.419,272 226.759,272 226.759,272 C 226.759,272 230.380,267.582 230.380,267.582 C 236.017,260.703 235.232,259.173 228.414,263.754 C 221.175,268.618 215.752,273.789 216.544,275.071 C 217.630,276.828 232.137,275.574 239.233,273.110" stroke="#61A539" fill="#61A539" stroke-width="1" />
  <path id="9" d="M 654,497.020 C 654,494.799 662.376,475.147 665.232,470.669 C 669.451,464.052 678.704,456.757 689.750,451.339 C 694.838,448.843 699,446.426 699,445.968 C 699,445.510 698.170,444.871 697.155,444.549 C 695.009,443.868 682.450,445.498 678.619,446.955 C 676.149,447.894 674.848,446.830 676.909,445.556 C 677.409,445.247 680.319,441.283 683.376,436.747 C 689.377,427.843 698.803,416.833 706,410.322 C 717.072,400.305 734.173,391.748 749.442,388.581 C 752.710,387.903 755.549,386.853 755.751,386.247 C 755.953,385.641 753.954,384.194 751.309,383.032 C 748.664,381.870 745.263,380.377 743.750,379.715 C 742.237,379.053 741,378.222 741,377.869 C 741,377.516 744,376.661 747.667,375.969 C 757.368,374.139 777.913,375.473 788.250,378.605 C 791.692,379.648 789.926,376.336 781.882,366.664 C 777.417,361.295 774.020,356.646 774.333,356.333 C 775.224,355.442 796.401,362.786 806.438,367.467 C 817.152,372.464 829.435,379.617 836.769,385.132 C 839.667,387.311 842.464,388.831 842.985,388.509 C 843.537,388.168 843.676,384.608 843.318,379.962 C 842.893,374.453 843.044,372 843.807,372 C 844.414,372 848.579,376.388 853.063,381.750 C 861.692,392.070 868.613,397.575 876,399.994 C 878.475,400.805 882.900,402.908 885.833,404.669 C 890.775,407.635 898.412,410 903.049,410 C 908.975,410 910.566,417.867 906.909,429.085 C 903.118,440.714 892.492,457.482 886.374,461.490 C 883.345,463.475 883.319,464.475 886.614,452.189 C 888.591,444.816 887.831,443.265 882,442.787 C 878.765,442.522 878.345,442.824 876.447,446.776 C 875.318,449.128 873.518,451.898 872.447,452.932 C 870.152,455.150 862.810,459.144 862.183,458.517 C 861.943,458.277 862.954,455.774 864.429,452.954 C 866.246,449.479 867.012,446.651 866.805,444.181 C 866.508,440.640 866.344,440.501 861,439.311 C 853.524,437.646 833.061,436.750 824.512,437.713 C 815.469,438.732 814.769,440.635 821.958,444.661 C 826.732,447.335 827.207,447.975 830.111,455.656 C 833.648,465.010 837.932,470.131 840.464,468.030 C 841.309,467.329 842,465.434 842,463.820 C 842,457.980 844.166,452.018 847.028,449.980 C 850.528,447.488 851.351,447.475 850.035,449.934 C 849.466,450.998 849,453.862 849,456.299 C 849,463.658 852.813,467.112 865.283,471.047 C 879.710,475.600 885.228,480.975 886.579,491.790 C 887.389,498.277 886.698,499.274 884.541,494.729 C 882.388,490.192 876.384,483.705 874.819,484.227 C 874.024,484.492 873.549,486.843 873.498,490.778 C 873.381,499.769 871.010,500.584 869.618,492.112 C 868.688,486.451 865.517,482.291 858.847,477.980 C 851.770,473.406 849.816,473.105 847.741,476.272 C 845.264,480.053 829.135,487.469 827.325,485.659 C 827.065,485.399 827.560,483.817 828.426,482.143 C 830.964,477.234 830.367,475.555 823.969,469.632 C 813.183,459.646 791.616,450.686 771.851,447.980 C 767.260,447.351 763.344,446.678 763.150,446.484 C 762.956,446.290 765.543,444.745 768.899,443.051 C 772.255,441.357 775,439.544 775,439.021 C 775,436.625 770.924,435.953 762.628,436.984 C 743.565,439.353 728.336,447.777 705,468.863 C 698.675,474.578 691.025,480.931 688,482.979 C 673.486,492.806 654,500.853 654,497.020M 885.786,426.872 C 885.956,425.989 884.909,423.856 883.459,422.133 C 881.326,419.598 880.070,419 876.880,419 C 869.819,419 870.554,423.073 878.311,426.938 C 883.002,429.275 885.327,429.255 885.786,426.872M 848.435,423.025 C 853.168,421.226 851.016,417.910 841.650,412.566 C 837.962,410.462 836.525,410.078 835.650,410.966 C 834.779,411.850 835.579,413.057 838.944,415.938 C 843.027,419.433 843.217,419.796 841.287,420.409 C 835.029,422.395 824.415,415.929 822.404,408.906 C 821.197,404.691 819.021,403.588 805.362,400.259 C 797.075,398.239 794.643,397.965 793.696,398.942 C 792.759,399.909 794.123,401.676 800,407.106 C 808.068,414.560 818.377,420.410 827.217,422.551 C 833.636,424.105 844.930,424.357 848.435,423.025" stroke="#61A539" fill="#61A539" stroke-width="1" />
  <path id="9" d="M 580.405,714.515 C 567.772,711.767 556.603,705.599 548.352,696.815 C 541.531,689.554 538.252,682.803 536.705,672.831 C 536.006,668.328 534.940,664.480 534.336,664.279 C 533.732,664.078 531.055,666.969 528.386,670.706 C 522.861,678.442 522.239,677.913 523.944,666.926 C 526.051,653.348 533.868,640.688 544.991,632.844 C 548.296,630.513 551,628.231 551,627.772 C 551,625.898 547.353,625.787 540.312,627.447 C 536.218,628.412 532.560,628.883 532.184,628.494 C 531.094,627.366 542.882,617.250 550,613.206 C 553.575,611.175 559.425,608.522 563,607.311 C 566.575,606.100 569.500,604.623 569.500,604.028 C 569.500,603.433 565.927,601.393 561.561,599.495 C 553.266,595.889 548.005,592.226 544.632,587.708 C 542.101,584.318 542.665,583.792 547.426,585.107 C 552.120,586.403 554.225,585.037 551.789,582.274 C 549.289,579.439 544.418,569.093 542.008,561.500 C 539.188,552.612 538.253,534.109 539.928,520.320 C 541.535,507.093 547.083,483.263 553.507,462 C 556.415,452.375 560.007,440 561.490,434.500 C 565.511,419.584 567.969,412.177 571.156,405.375 C 573.838,399.651 574.423,399.078 580.079,396.625 C 583.408,395.181 586.464,394 586.869,394 C 587.274,394 587.281,396.587 586.884,399.750 C 585.154,413.533 584.707,437.025 585.980,447.341 C 585.980,447.341 587.269,457.786 587.269,457.786 C 587.269,457.786 584.015,463.474 584.015,463.474 C 579.870,470.718 580.883,472.003 587.875,468.375 C 594.370,465.005 595.250,465.719 595.250,474.359 C 595.250,479.570 594.621,482.212 592.097,487.606 C 587.999,496.363 589.172,497.717 595.944,492.047 C 598.727,489.717 601.829,486.761 602.838,485.479 C 602.838,485.479 604.671,483.148 604.671,483.148 C 604.671,483.148 611.158,489.324 611.158,489.324 C 621.389,499.065 635.498,505.902 652,509.116 C 666.100,511.862 709.702,509.698 713.328,506.072 C 714.764,504.636 712.952,504.209 695.957,501.971 C 686.906,500.779 679.323,499.634 679.106,499.425 C 677.531,497.908 718.611,482.471 733.400,479.023 C 745.011,476.316 767.966,473.864 778.500,474.207 C 778.500,474.207 787.500,474.500 787.500,474.500 C 787.500,474.500 780.500,479.394 780.500,479.394 C 776.650,482.086 771.794,485.179 769.708,486.267 C 767.622,487.355 766.080,488.753 766.282,489.373 C 766.484,489.993 769.766,490.852 773.575,491.281 C 796.491,493.864 810.918,497.304 825.408,503.639 C 836.099,508.313 847.391,515.009 846.345,516.055 C 845.876,516.524 841.931,517.040 837.577,517.203 C 833.108,517.370 829.506,517.966 829.307,518.569 C 829.113,519.157 832.452,521.396 836.727,523.546 C 851.519,530.984 860.364,543.333 862.116,558.992 C 862.616,563.463 862.665,568.512 862.225,570.212 C 862.225,570.212 861.424,573.303 861.424,573.303 C 861.424,573.303 858.205,566.902 858.205,566.902 C 854.004,558.546 850.424,554.176 848.971,555.629 C 848.187,556.413 848.490,558.503 850.051,563.108 C 851.870,568.471 852.140,571.029 851.731,579 C 850.909,595.042 845.362,606.569 832.247,619.492 C 824.568,627.059 812.891,633.574 810.115,631.840 C 808.447,630.798 808.505,630.417 811.054,625.615 C 819,610.649 816.930,597.857 804.549,585.426 C 794.487,575.323 777.894,567.629 755.778,562.810 C 746.209,560.725 742.809,560.559 706.500,560.405 C 666.912,560.237 658.260,559.654 640.219,555.942 C 626.963,553.215 617.893,550.421 608.708,546.235 C 603.106,543.682 600.611,542.989 599.831,543.769 C 598.545,545.055 601.548,550.365 606.983,556.416 C 606.983,556.416 610.500,560.333 610.500,560.333 C 610.500,560.333 607,559.643 607,559.643 C 605.075,559.263 599.275,556.897 594.111,554.386 C 576.391,545.769 567.979,534.493 563.662,513.573 C 562.422,507.562 560.631,505.409 559.607,508.695 C 559.298,509.688 558.602,513.650 558.062,517.500 C 556.416,529.226 559.304,542.096 566.238,553.932 C 572.823,565.173 598.192,587.208 601.147,584.253 C 601.973,583.427 601.443,581.674 599.125,577.567 C 596.625,573.137 596.307,572 597.570,572 C 602.046,572 646.697,588.018 658.702,593.931 C 665.959,597.505 667.517,596.078 663.067,589.934 C 659.840,585.479 656.686,577.807 655.586,571.737 C 654.502,565.756 656.800,566.084 665.725,573.184 C 670.092,576.658 678.352,583.191 684.082,587.702 C 689.812,592.213 698.067,599.053 702.428,602.901 C 706.789,606.749 710.734,609.664 711.196,609.379 C 711.657,609.094 711.740,605.312 711.378,600.975 C 710.923,595.515 711.111,592.148 711.990,590.025 C 711.990,590.025 713.260,586.959 713.260,586.959 C 713.260,586.959 716.019,590.729 716.019,590.729 C 717.537,592.803 721.641,599.889 725.139,606.475 C 734.526,624.147 741.469,630.273 754.708,632.560 C 761.198,633.681 762.950,634.408 765.196,636.909 C 766.679,638.560 768.194,641.518 768.563,643.483 C 769.531,648.644 765.779,659.406 759.878,668.395 C 755.264,675.424 747.597,682.930 746.329,681.662 C 746.010,681.344 746.481,679.255 747.375,677.021 C 749.384,672 749.469,666.634 747.565,665.054 C 746.776,664.399 744.657,664.007 742.856,664.182 C 740.204,664.440 738.750,665.597 735.202,670.274 C 731.420,675.259 726.195,679 723.014,679 C 722.606,679 723.336,676.899 724.636,674.331 C 727.774,668.133 727.824,662.256 724.750,661.116 C 716.295,657.980 681.203,656.875 680.260,659.715 C 680.038,660.383 682.112,662.318 684.867,664.013 C 688.625,666.326 690.176,668.021 691.075,670.798 C 692.679,675.754 696.705,683.699 698.025,684.515 C 699.899,685.673 701.832,683.012 702.969,677.709 C 704.363,671.207 707.238,668 711.674,668 C 713.503,668 715,668.205 715,668.456 C 715,668.707 713.875,670.569 712.500,672.595 C 711.125,674.621 710,677.257 710,678.452 C 710,682.030 714.944,685.671 725,689.498 C 730.681,691.660 735.765,694.335 737.647,696.153 C 741.426,699.803 743.514,706.449 742.530,711.694 C 742.530,711.694 741.822,715.467 741.822,715.467 C 741.822,715.467 739.406,710.384 739.406,710.384 C 735.416,701.990 731.005,699.590 730.996,705.809 C 730.991,709.108 727.545,715 725.620,715 C 724.522,715 724.387,714.216 725.011,711.451 C 726.310,705.693 724.516,701.396 719.195,697.517 C 710.631,691.275 711.084,691.311 703.914,696.306 C 698.354,700.179 689.951,704 686.993,704 C 686.478,704 687.168,701.908 688.528,699.351 C 689.887,696.794 691,694.137 691,693.445 C 691,691.455 677.833,679.789 667.940,673.013 C 655.402,664.426 641.075,658.194 627.632,655.481 C 623.844,654.717 624.769,653.990 633.332,651.002 C 642.916,647.657 642.755,646.150 632.500,643.195 C 604.144,635.025 579.761,641.547 570.834,659.689 C 567.721,666.015 567.502,667.129 567.521,676.482 C 567.540,685.782 567.783,687.001 570.910,693.500 C 573.403,698.682 576.333,702.513 582.187,708.250 C 590.653,716.546 590.599,716.733 580.405,714.515M 748.759,651.224 C 749.356,649.432 741.929,642.271 738.609,641.438 C 736.998,641.034 735.395,641.205 734.750,641.850 C 733.416,643.184 735.607,645.908 741.448,650.182 C 745.485,653.135 748.003,653.494 748.759,651.224M 717.326,643.074 C 718.790,641.610 716.863,639.751 708.892,634.935 C 703.456,631.650 701.627,630.974 700.697,631.905 C 699.768,632.836 700.450,633.892 703.750,636.634 C 708.702,640.749 709.052,642.002 705.250,641.994 C 697.299,641.978 691.232,637.912 687.841,630.328 C 685.827,625.824 685.832,625.826 669.616,620.592 C 657.595,616.712 656.706,618.805 666.547,627.822 C 681.755,641.758 690.195,645.294 706.418,644.530 C 711.873,644.273 716.782,643.618 717.326,643.074M 824.477,574.037 C 825.677,572.096 819.975,563.192 813.976,557.638 C 806.895,551.083 796.786,545.634 787.754,543.504 C 773.883,540.234 737.941,542.858 740.474,546.957 C 740.722,547.359 746.905,547.990 754.213,548.359 C 785.754,549.951 806.155,556.768 817.804,569.608 C 822.766,575.078 823.523,575.580 824.477,574.037" stroke="#61A539" fill="#61A539" stroke-width="1" />
  <path id="9" d="M 136.345,492.975 C 136.691,489.661 137.655,485.635 138.486,484.027 C 141.144,478.886 149.631,473.654 160.289,470.587 C 170.447,467.663 176.098,459.739 174.329,450.895 C 173.584,447.172 175.249,447.138 177.872,450.821 C 179.865,453.620 181.714,459.812 182.231,465.423 C 182.379,467.031 183.052,468.527 183.725,468.748 C 185.404,469.299 190.755,460.615 192.568,454.398 C 194.341,448.317 197.035,445.551 203.611,443.059 C 210.189,440.566 210.495,438.477 204.406,437.642 C 193.263,436.115 163.316,437.690 158.937,440.034 C 157.694,440.699 157,442.126 157,444.015 C 157,447.335 159.621,454.692 161.655,457.079 C 164.090,459.938 163.068,460.069 158.074,457.538 C 154.276,455.614 152.301,453.668 149.449,449.048 C 145.340,442.391 143.348,441.247 139.266,443.197 C 135.607,444.945 135.423,447.320 138.329,455.326 C 139.663,459.001 140.289,462 139.722,462 C 138.053,462 131.076,454.034 126.172,446.529 C 123.667,442.695 120.437,436.150 118.995,431.985 C 117.553,427.820 116.104,423.978 115.777,423.448 C 115.450,422.918 114.866,420.799 114.479,418.738 C 113.453,413.267 115.833,410 120.845,410 C 125.923,410 133.594,407.335 138.500,403.866 C 140.700,402.311 144.075,400.740 146,400.375 C 154.353,398.792 163.234,391.768 172.572,379.361 C 179.053,370.750 179.961,370.913 179.985,380.691 C 179.993,384.096 180.458,387.165 181.018,387.511 C 181.578,387.857 183.715,386.824 185.768,385.216 C 199.487,374.468 228.802,360.595 246.250,356.593 C 250.928,355.520 249.554,358.358 241,367.439 C 230.530,378.554 230.470,379.964 240.575,377.395 C 248.838,375.294 276.521,374.357 281.524,376.008 C 281.524,376.008 285.351,377.271 285.351,377.271 C 285.351,377.271 276.925,380.413 276.925,380.413 C 265.240,384.771 265.389,386.390 277.772,389.598 C 295.717,394.247 307.180,401.128 322.539,416.471 C 330.195,424.119 346.779,445.554 345.799,446.534 C 345.628,446.705 342.683,446.197 339.254,445.405 C 332.172,443.769 325.500,443.940 325.500,445.757 C 325.500,446.426 328.813,448.561 332.862,450.501 C 347.959,457.736 355.344,464.636 361.763,477.500 C 365.699,485.388 368.464,494.350 367.631,496.520 C 365.172,502.927 338.013,488.661 320,471.501 C 300.721,453.135 282.013,441.750 265,438.030 C 258.641,436.640 250.829,436.974 250.275,438.659 C 250.066,439.296 252.168,441.055 254.947,442.568 C 260.660,445.678 261.314,447 257.139,447 C 252.479,447 233.976,451.045 227.465,453.486 C 214.542,458.332 201.563,466.612 195.388,473.951 C 192.630,477.228 192.620,477.291 194.180,481.628 C 195.045,484.033 195.470,485.995 195.126,485.988 C 194.782,485.981 192.109,485.340 189.187,484.562 C 182.856,482.877 179.405,480.846 175.905,476.745 C 173.799,474.277 172.815,473.830 170.676,474.367 C 163.827,476.086 152.089,489.504 152.023,495.691 C 152.010,496.896 151.602,498.128 151.116,498.428 C 149.600,499.365 147.730,493.250 148.416,489.595 C 149.795,482.246 143.965,485.250 139.384,494.250 C 138.054,496.862 136.685,499 136.341,499 C 135.997,499 135.999,496.289 136.345,492.975M 143.770,427.630 C 153.182,421.649 153.030,415.376 143.560,418.977 C 140.670,420.076 137.395,425.980 138.327,428.409 C 139.118,430.471 139.351,430.438 143.770,427.630M 198.661,421.602 C 208.437,418.999 214.951,415.254 222.594,407.843 C 229.631,401.019 231.526,397.992 228.750,398.006 C 228.062,398.010 222.377,399.360 216.116,401.006 C 209.855,402.652 204.579,404 204.393,404 C 204.207,404 203.083,406.260 201.895,409.023 C 199.181,415.331 195.243,418.691 189.566,419.542 C 182.803,420.556 182.206,419.384 187,414.500 C 189.599,411.852 190.771,409.977 190.091,409.556 C 188.768,408.738 180.835,412.958 176,417.052 C 172.612,419.920 172.562,420.063 174.441,421.508 C 176.964,423.447 191.518,423.504 198.661,421.602" stroke="#61A539" fill="#61A539" stroke-width="1" />
  <path id="9" d="M 535.328,249.750 C 548.402,219.575 551.414,213.041 551.948,213.703 C 553.177,215.226 554.919,221.539 555.993,228.359 C 556.966,234.541 556.872,235.626 555.034,239.359 C 552.597,244.309 547.227,248.267 540.807,249.846 C 534.944,251.288 534.664,251.283 535.328,249.750" stroke="#61A539" fill="#61A539" stroke-width="1" />
  <path id="10" d="M 481.416,249.588 C 472.115,246.676 467,240.956 467,233.468 C 467,228.577 471.174,211.773 472.147,212.749 C 472.559,213.162 475.809,220.574 479.370,229.220 C 482.931,237.866 486.554,245.954 487.422,247.193 C 490.335,251.352 488.891,251.928 481.416,249.588" stroke="#60A437" fill="#60A437" stroke-width="1" />
</g><g id="heads"><path id="9" d="M 528.557,464.093 C 528.263,463.616 528.734,459.077 529.605,454.007 C 530.561,448.441 530.827,444.427 530.275,443.875 C 529.723,443.323 527.606,443.592 524.931,444.552 C 517.929,447.066 507.511,447.483 500.113,445.546 C 496.276,444.541 493.363,444.237 492.816,444.784 C 492.269,445.331 492.341,449.198 492.996,454.470 C 494.589,467.292 494.113,467.240 485.609,453.655 C 478.875,442.898 474.582,432.067 471.948,419.193 C 469.172,405.623 468.245,403.223 463.984,398.584 C 461.921,396.338 458.243,391.586 455.812,388.024 C 448.663,377.552 440.072,374.341 444.989,383.978 C 446.172,386.297 446.938,388.395 446.693,388.640 C 446.448,388.885 443.927,388.204 441.092,387.127 C 436.756,385.479 433.338,383.546 424.637,377.818 C 423.268,376.917 423.758,369.340 425.387,366.232 C 425.387,366.232 426.674,363.775 426.674,363.775 C 426.674,363.775 430.388,367.036 430.388,367.036 C 435.114,371.186 436.636,370.053 434.493,363.980 C 432.354,357.919 430.696,356.398 423.634,354.023 C 415.982,351.449 404.414,345.535 404.755,344.371 C 404.895,343.892 407.694,342.600 410.974,341.500 C 414.254,340.400 417.740,338.673 418.719,337.661 C 420.430,335.894 420.404,335.757 418.038,334.161 C 408.538,327.754 403.647,323.369 399.985,317.977 C 395.562,311.464 390.473,301.194 391.273,300.394 C 391.789,299.878 400.013,301.143 409.245,303.157 C 416.484,304.736 418.460,303.527 415.660,299.230 C 411.909,293.475 401.239,270.873 399.154,264.268 C 394.906,250.808 392.232,229 394.830,229 C 395.287,229 397.188,231.137 399.056,233.750 C 403.044,239.330 425.075,261.710 429.680,264.861 C 431.429,266.058 433.083,266.675 433.356,266.233 C 433.629,265.791 431.136,261.396 427.814,256.465 C 412.859,234.264 406.014,212.059 406.004,185.708 C 405.998,170.152 409.792,153.894 414.961,147.323 C 414.961,147.323 416.834,144.941 416.834,144.941 C 416.834,144.941 417.459,151.720 417.459,151.720 C 419.692,175.964 421.547,183.309 429.230,198.319 C 432.995,205.675 436.222,210.214 442.091,216.414 C 446.400,220.966 451.514,225.772 453.456,227.095 C 456.261,229.005 456.988,230.160 456.993,232.712 C 457.004,237.684 460.867,246.847 464.778,251.176 C 467.772,254.490 468.746,254.995 471.132,254.471 C 472.682,254.131 475.424,254.315 477.225,254.881 C 488.629,258.464 498.636,261.425 499.456,261.460 C 499.982,261.482 500.944,259.666 501.593,257.423 C 503.986,249.158 509.736,239.076 512.092,239.015 C 512.998,238.992 519.746,254.061 520.512,257.818 C 521.364,262 522.785,262.535 527.633,260.504 C 532.669,258.394 544.174,255.350 550.500,254.453 C 553.250,254.063 556.274,253.344 557.219,252.854 C 559.896,251.467 564.106,243.510 565.985,236.287 C 567.481,230.538 568.302,229.214 572.604,225.612 C 585.608,214.723 595.602,200.190 601.125,184.137 C 603.816,176.316 607,158.838 607,151.890 C 607,148.585 607.398,146.128 607.884,146.428 C 611.129,148.433 616.360,166.658 617.520,180 C 619.547,203.305 611.014,233.373 596.496,254.092 C 589.740,263.733 589.169,265.013 591.643,264.961 C 594.744,264.896 608.185,252.797 618.465,240.816 C 623.806,234.592 628.474,229.388 628.838,229.252 C 629.983,228.824 630.061,235.177 629.020,244.013 C 627.157,259.826 619.504,279.751 608.759,296.765 C 606.138,300.915 605.076,303.476 605.713,304.113 C 606.350,304.750 610.984,304.201 619.006,302.539 C 625.779,301.136 631.532,300.199 631.791,300.458 C 632.734,301.401 627.715,312.015 623.486,318.020 C 618.658,324.876 613.851,329.302 606.750,333.429 C 604.138,334.947 602,336.618 602,337.141 C 602,338.402 611.909,342.978 614.668,342.990 C 617.572,343.003 620,343.997 620,345.172 C 620,346.609 606.317,352.646 598.755,354.546 C 591.020,356.489 588.776,358.521 588.616,363.727 C 588.521,366.818 588.871,367.553 590.555,367.794 C 591.685,367.956 593.443,367.168 594.460,366.044 C 595.477,364.920 596.690,364 597.155,364 C 598.354,364 598.203,371.331 596.936,374.685 C 594.901,380.070 587.389,385.917 579.280,388.428 C 577.070,389.112 577.067,389.095 578.502,384.329 C 579.305,381.661 579.562,379.162 579.083,378.683 C 577.422,377.022 569.911,383.363 564.232,391.219 C 561.080,395.580 557.511,400.495 556.303,402.143 C 555.094,403.791 553.373,408.596 552.478,412.820 C 548.926,429.586 546.826,436.817 543.427,444 C 537.175,457.210 530.161,466.688 528.557,464.093M 479.571,365.675 C 480.387,363.548 476.455,355.510 472.408,351.030 C 470.355,348.758 465.711,345.162 462.088,343.040 C 454.278,338.465 451.883,334.901 451.080,326.655 C 451.080,326.655 450.500,320.693 450.500,320.693 C 450.500,320.693 442.730,314.666 442.730,314.666 C 432.638,306.839 431.452,307.726 436.768,319.121 C 438.918,323.730 442.663,332.399 445.089,338.386 C 451.492,354.186 455.327,358.070 471,364.618 C 477.420,367.300 478.879,367.480 479.571,365.675M 550.068,365.414 C 557.740,363.174 567.288,357.640 570.142,353.780 C 572.530,350.551 575.320,344.758 584.481,324 C 587.030,318.225 589.575,312.659 590.139,311.632 C 590.838,310.358 590.839,309.439 590.140,308.740 C 589.441,308.041 587.588,308.964 584.308,311.642 C 581.664,313.801 577.812,316.813 575.750,318.335 C 572.122,321.013 571.999,321.303 571.985,327.301 C 571.977,330.710 571.403,334.621 570.710,335.991 C 570.002,337.390 566.401,340.149 562.492,342.285 C 558.665,344.377 554.471,347.081 553.172,348.294 C 549.642,351.590 542.696,363.765 543.359,365.493 C 544.062,367.324 543.503,367.331 550.068,365.414" stroke="#61A539" fill="#61A539" stroke-width="1" />
  </g></svg>